<svg width="430" height="201" viewBox="0 0 430 201" fill="none" xmlns="http://www.w3.org/2000/svg">
<g clip-path="url(#clip0_851_5443)">
<g opacity="0.05">
<path fill-rule="evenodd" clip-rule="evenodd" d="M-3.57547 210.683C-8.491 209.171 -11.5888 205.827 -9.82475 203.756C-6.79154 200.193 7.54632 205.864 3.94303 210.17C2.77062 211.571 -0.15503 211.746 -3.57547 210.683Z" fill="#181820"/>
<path fill-rule="evenodd" clip-rule="evenodd" d="M14.6025 207.623C11.9672 206.826 10.0742 205.515 9.36427 204.801C8.78345 204.214 8.0843 202.171 8.22413 201.75C8.95555 199.597 12.8493 199.404 16.302 200.55C20.7227 202.016 22.8524 204.801 22.2824 206.377C21.7553 207.833 20.4431 208.145 18.7974 208.246C17.8078 208.301 16.6139 208.218 14.6025 207.613V207.623Z" fill="#181820"/>
<path fill-rule="evenodd" clip-rule="evenodd" d="M0.458205 194.292C-3.52155 192.973 -6.23209 190.188 -5.23178 188.291C-2.91922 183.875 9.90207 189.583 7.99824 193.44C7.13775 195.181 4.481 195.63 0.468972 194.283L0.458205 194.292Z" fill="#181820"/>
<path fill-rule="evenodd" clip-rule="evenodd" d="M32.4899 204.15C28.4671 202.996 25.6167 200.348 26.4987 198.415C28.5639 193.908 41.611 199.057 39.9223 202.978C39.1586 204.755 36.5449 205.305 32.4791 204.15H32.4899Z" fill="#181820"/>
<path fill-rule="evenodd" clip-rule="evenodd" d="M18.9908 191.351C14.1291 190.005 10.6118 186.34 14 184.489C18.453 182.071 29.8115 188.328 24.5625 191.306C23.9171 191.672 21.9273 192.167 18.9908 191.351Z" fill="#181820"/>
<path fill-rule="evenodd" clip-rule="evenodd" d="M50.2159 200.33C41.0517 198.03 43.1384 191.168 51.4743 193.55C55.6154 194.732 58.1324 197.426 57.0245 199.286C56.0887 200.861 53.4212 201.136 50.2159 200.33Z" fill="#181820"/>
<path fill-rule="evenodd" clip-rule="evenodd" d="M82.0432 208.154C78.0204 207.275 75.041 204.81 75.7724 202.831C77.4612 198.204 90.6051 202.492 89.239 206.514C88.6259 208.337 86.109 209.052 82.0432 208.154Z" fill="#181820"/>
<path fill-rule="evenodd" clip-rule="evenodd" d="M5.40567 178.149C1.27533 176.885 -1.63957 173.889 0.124429 171.901C2.75967 168.942 13.2791 173.055 12.2896 176.793C11.7733 178.745 8.81536 179.185 5.40567 178.149Z" fill="#181820"/>
<path fill-rule="evenodd" clip-rule="evenodd" d="M36.362 187.769C31.9735 186.633 29.3598 183.829 30.8979 181.896C32.1779 180.284 35.9963 180.531 38.9542 181.786C43.6546 183.784 44.0526 187.668 40.0836 188.172C39.1156 188.291 38.1798 188.236 36.362 187.769Z" fill="#181820"/>
<path fill-rule="evenodd" clip-rule="evenodd" d="M67.4578 196.07C63.6179 195.144 60.9396 192.826 61.6925 190.893C62.4454 188.96 66.1133 188.722 69.1465 189.629C72.9864 190.774 76.622 194.146 72.9757 195.95C72.212 196.335 70.3512 196.757 67.4686 196.06L67.4578 196.07Z" fill="#181820"/>
<path fill-rule="evenodd" clip-rule="evenodd" d="M99.1129 203.207C89.981 201.512 91.5191 194.549 99.8551 196.381C103.996 197.297 106.653 199.817 105.706 201.732C104.91 203.362 102.318 203.802 99.1236 203.207H99.1129Z" fill="#181820"/>
<path fill-rule="evenodd" clip-rule="evenodd" d="M-7.71671 164.645C-11.3953 163.316 -13.7186 160.733 -12.6968 158.891C-11.6749 157.05 -7.99635 157.215 -5.11372 158.433C-1.4674 159.972 1.65186 163.71 -2.23109 165.121C-3.04856 165.424 -4.95239 165.643 -7.71671 164.645Z" fill="#181820"/>
<path fill-rule="evenodd" clip-rule="evenodd" d="M130.833 208.969C126.831 208.346 123.734 206.083 124.304 204.068C125.616 199.359 138.792 202.794 137.76 206.88C137.286 208.731 134.877 209.601 130.843 208.969H130.833Z" fill="#181820"/>
<path fill-rule="evenodd" clip-rule="evenodd" d="M22.745 174.924C19.0449 173.825 16.7001 171.498 17.3239 169.711C18.0338 167.659 21.777 167.402 25.3802 168.942C31.2638 171.452 30.0484 175.822 25.0898 175.446C24.4014 175.391 23.713 175.208 22.745 174.924Z" fill="#181820"/>
<path fill-rule="evenodd" clip-rule="evenodd" d="M53.5717 183.857C49.6673 182.877 46.9675 180.321 48.2797 178.47C49.3231 176.995 52.0981 176.812 54.7011 177.563C62.1873 179.725 61.0149 185.708 53.5717 183.848V183.857Z" fill="#181820"/>
<path fill-rule="evenodd" clip-rule="evenodd" d="M84.033 191.342C80.6448 190.527 78.0418 188.328 78.6979 186.523C80.2145 182.382 92.1108 186.102 90.8201 189.886C90.2177 191.663 87.5072 192.185 84.033 191.342Z" fill="#181820"/>
<path fill-rule="evenodd" clip-rule="evenodd" d="M115.667 197.865C111.838 197.187 109.052 195.053 109.643 193.083C110.235 191.113 113.806 190.646 116.839 191.351C120.679 192.249 124.476 195.373 121.045 197.407C120.324 197.829 118.539 198.378 115.667 197.865Z" fill="#181820"/>
<path fill-rule="evenodd" clip-rule="evenodd" d="M9.42883 161.704C6.18049 160.531 3.92172 158.076 4.83599 156.363C6.94419 152.414 18.2166 157.361 16.3773 160.98C15.5168 162.675 12.7525 162.904 9.42883 161.704Z" fill="#181820"/>
<path fill-rule="evenodd" clip-rule="evenodd" d="M147.332 203.014C138.276 201.897 139.265 194.86 147.537 196.161C151.656 196.812 154.442 199.148 153.657 201.127C152.99 202.794 150.495 203.408 147.321 203.014H147.332Z" fill="#181820"/>
<path fill-rule="evenodd" clip-rule="evenodd" d="M40.4383 171.452C37.1362 170.627 34.4902 168.74 34.7591 166.853C35.0387 164.929 38.9001 163.701 43.4822 166.101C48.3225 168.621 46.5262 172.982 40.4383 171.452Z" fill="#181820"/>
<path fill-rule="evenodd" clip-rule="evenodd" d="M178.977 206.716C174.556 206.395 170.899 204.141 172.007 201.686C173.793 197.719 185.237 200.019 185.345 203.738C185.409 205.9 182.548 206.982 178.977 206.725V206.716Z" fill="#181820"/>
<path fill-rule="evenodd" clip-rule="evenodd" d="M70.3083 179.505C67.0384 178.68 64.586 176.573 65.2959 174.805C66.8986 170.801 77.8698 174.695 76.5468 178.204C75.9552 179.771 73.8147 180.385 70.3083 179.505Z" fill="#181820"/>
<path fill-rule="evenodd" clip-rule="evenodd" d="M210.342 209.061C206.373 208.85 203.071 206.926 203.361 204.865C204.017 200.055 217.247 202.116 216.785 206.276C216.57 208.163 214.354 209.272 210.342 209.061Z" fill="#181820"/>
<path fill-rule="evenodd" clip-rule="evenodd" d="M100.92 186.431C96.7359 185.561 93.6166 182.254 96.7358 180.549C100.533 178.47 108.116 182.034 107.234 184.828C106.707 186.495 103.996 187.073 100.92 186.431Z" fill="#181820"/>
<path fill-rule="evenodd" clip-rule="evenodd" d="M-2.08035 148.786C-5.40398 147.714 -7.79185 145.368 -7.40463 143.701C-6.93136 141.667 -2.88705 140.907 1.28631 143.289C6.22336 146.11 4.29801 150.829 -2.08035 148.786Z" fill="#181820"/>
<path fill-rule="evenodd" clip-rule="evenodd" d="M132.177 192.249C125.541 191.306 123.594 185.763 130.209 185.561C134.759 185.424 141.331 189.134 137.114 191.681C136.383 192.121 134.769 192.616 132.166 192.249H132.177Z" fill="#181820"/>
<path fill-rule="evenodd" clip-rule="evenodd" d="M385.15 205.195C379.782 206.193 379.416 202.061 383.902 201.484C388.333 200.916 389.818 204.324 385.15 205.195Z" fill="#181820"/>
<path fill-rule="evenodd" clip-rule="evenodd" d="M27.1979 158.735C20.6475 156.775 20.7335 151.369 26.7677 152.203C31.2315 152.817 36.0825 157.031 32.0597 158.854C31.253 159.212 29.7364 159.496 27.2087 158.744L27.1979 158.735Z" fill="#181820"/>
<path fill-rule="evenodd" clip-rule="evenodd" d="M162.961 196.619C159.164 196.18 156.282 194.228 156.712 192.231C157.142 190.224 160.606 189.546 163.617 190.059C167.436 190.71 171.383 193.587 168.178 195.822C167.5 196.289 165.801 196.949 162.951 196.619H162.961Z" fill="#181820"/>
<path fill-rule="evenodd" clip-rule="evenodd" d="M415.514 198.745C412.298 199.395 410.857 197.022 413.771 196.079C417.278 194.952 420.01 197.838 415.514 198.745Z" fill="#181820"/>
<path fill-rule="evenodd" clip-rule="evenodd" d="M57.1534 167.43C53.8298 166.614 51.657 164.48 52.012 162.977C53.0016 158.818 63.7899 162.299 63.0155 165.854C62.639 167.613 60.1544 168.163 57.1534 167.421V167.43Z" fill="#181820"/>
<path fill-rule="evenodd" clip-rule="evenodd" d="M194.336 199.707C185.387 199.148 185.828 192.075 194.025 192.863C198.101 193.257 201.005 195.41 200.392 197.435C199.876 199.139 197.467 199.89 194.347 199.707H194.336Z" fill="#181820"/>
<path fill-rule="evenodd" clip-rule="evenodd" d="M87.5179 174.943C86.3885 174.741 84.7966 174.21 84.1512 173.843C81.5483 172.405 80.5694 168.236 86.2809 168.722C90.6802 169.097 94.9611 172.414 91.8419 174.503C91.2933 174.869 89.8305 175.355 87.5071 174.943H87.5179Z" fill="#181820"/>
<path fill-rule="evenodd" clip-rule="evenodd" d="M336.381 204.508C332.929 205.057 329.723 203.83 330.326 201.796C331.176 198.901 340.867 198.873 339.856 202.547C339.619 203.399 338.447 204.178 336.392 204.508H336.381Z" fill="#181820"/>
<path fill-rule="evenodd" clip-rule="evenodd" d="M225.411 201.448C216.473 201.264 216.516 194.182 224.712 194.622C228.789 194.851 231.8 196.885 231.305 198.937C230.886 200.66 228.541 201.512 225.411 201.448Z" fill="#181820"/>
<path fill-rule="evenodd" clip-rule="evenodd" d="M117.904 181.273C114.075 180.733 110.676 178.388 112.418 176.152C114.656 173.294 123.25 176.079 123.293 178.891C123.314 180.797 121.002 181.713 117.904 181.273Z" fill="#181820"/>
<path fill-rule="evenodd" clip-rule="evenodd" d="M366.37 200.165C365.498 200.266 363.896 200.183 363.218 199.927C360.906 199.029 361.616 195.648 366.821 195.859C370.651 196.015 371.672 199.542 366.37 200.165Z" fill="#181820"/>
<path fill-rule="evenodd" clip-rule="evenodd" d="M256.131 201.722C252.732 201.686 249.666 200.147 249.763 198.259C249.978 193.926 262.143 194.869 262.036 198.809C261.993 200.66 259.616 201.759 256.131 201.722Z" fill="#181820"/>
<path fill-rule="evenodd" clip-rule="evenodd" d="M14.6024 145.707C11.5047 144.626 9.35347 142.327 10.2785 140.632C12.3652 136.784 22.6157 141.548 20.884 144.919C20.0988 146.431 17.9261 146.862 14.6132 145.707H14.6024Z" fill="#181820"/>
<path fill-rule="evenodd" clip-rule="evenodd" d="M147.687 186.147C143.536 185.543 140.244 182.446 143.159 180.559C146.719 178.25 154.389 181.31 153.732 184.159C153.345 185.845 150.731 186.596 147.677 186.157L147.687 186.147Z" fill="#181820"/>
<path fill-rule="evenodd" clip-rule="evenodd" d="M397.455 194.347C391.743 195.795 391.69 190.673 397.326 190.93C399.649 191.04 401.252 193.385 397.455 194.347Z" fill="#181820"/>
<path fill-rule="evenodd" clip-rule="evenodd" d="M287.398 200.605C284.171 200.742 281.106 199.469 281.17 197.581C281.31 193.495 292.346 194.219 292.464 197.7C292.518 199.313 290.797 200.458 287.409 200.605H287.398Z" fill="#181820"/>
<path fill-rule="evenodd" clip-rule="evenodd" d="M43.9018 155.061C40.8471 154.136 38.5668 151.965 39.4703 150.242C41.4387 146.513 51.3665 150.774 49.9037 154.026C49.2261 155.538 47.1179 156.033 43.9018 155.061Z" fill="#181820"/>
<path fill-rule="evenodd" clip-rule="evenodd" d="M178.686 189.996C172.125 189.464 169.802 184.068 176.266 183.454C180.698 183.033 187.399 186.322 183.484 189.125C182.806 189.611 181.257 190.206 178.697 189.996H178.686Z" fill="#181820"/>
<path fill-rule="evenodd" clip-rule="evenodd" d="M317.978 198.287C311.159 198.8 310.556 193.184 317.161 192.955C323.625 192.735 324.356 197.801 317.978 198.287Z" fill="#181820"/>
<path fill-rule="evenodd" clip-rule="evenodd" d="M427.636 187.238C425.732 187.879 424.657 187.54 424.259 187.036C422.86 185.222 429.077 183.61 429.013 186.037C429.013 186.395 428.712 186.871 427.636 187.238Z" fill="#181820"/>
<path fill-rule="evenodd" clip-rule="evenodd" d="M74.0404 163.115C72.997 162.904 71.4589 162.4 70.749 161.951C69.7917 161.346 68.6193 160.329 68.7161 159.193C68.8451 157.737 70.9426 156.536 73.9436 157.178C81.3007 158.763 80.1391 164.324 74.0404 163.115Z" fill="#181820"/>
<path fill-rule="evenodd" clip-rule="evenodd" d="M209.116 192.46C205.372 192.258 202.404 190.49 202.673 188.465C202.942 186.441 206.276 185.543 209.266 185.873C213.052 186.285 217.14 188.923 214.182 191.351C213.558 191.855 211.944 192.616 209.126 192.46H209.116Z" fill="#181820"/>
<path fill-rule="evenodd" clip-rule="evenodd" d="M103.577 169.867C97.1982 168.713 97.1445 163.619 102.641 163.985C109.826 164.462 110.988 171.214 103.577 169.867Z" fill="#181820"/>
<path fill-rule="evenodd" clip-rule="evenodd" d="M349.128 194.586C345.75 195.172 342.254 193.715 343.706 191.608C345.535 188.96 354.527 189.675 352.215 193.101C351.903 193.578 350.827 194.302 349.128 194.595V194.586Z" fill="#181820"/>
<path fill-rule="evenodd" clip-rule="evenodd" d="M240.211 193.55C236.146 193.605 232.521 191.681 233.317 189.299C234.521 185.735 245.181 186.431 245.708 190.224C245.977 192.213 243.567 193.504 240.222 193.55H240.211Z" fill="#181820"/>
<path fill-rule="evenodd" clip-rule="evenodd" d="M3.52342 132.78C-0.0798764 131.617 -2.85497 128.749 -0.628454 126.843C2.22191 124.415 9.95554 128.584 9.32093 131.342C8.90145 133.211 6.42755 133.724 3.51265 132.78H3.52342Z" fill="#181820"/>
<path fill-rule="evenodd" clip-rule="evenodd" d="M133.597 175.52C125.272 174.494 127.337 167.622 135.049 169.959C140.223 171.525 139.631 176.262 133.597 175.52Z" fill="#181820"/>
<path fill-rule="evenodd" clip-rule="evenodd" d="M379.137 189.601C372.63 190.994 372.877 185.249 379.191 185.653C381.902 185.827 383.364 188.685 379.137 189.601Z" fill="#181820"/>
<path fill-rule="evenodd" clip-rule="evenodd" d="M270.436 193.248C266.284 193.33 262.412 190.829 264.821 188.493C267.758 185.643 275.857 187.403 275.857 190.298C275.857 192.02 273.491 193.184 270.447 193.239L270.436 193.248Z" fill="#181820"/>
<path fill-rule="evenodd" clip-rule="evenodd" d="M32.1994 142.647C31.113 142.354 29.6287 141.694 29.0371 141.291C26.6707 139.651 26.2405 135.428 31.7691 136.381C36.0286 137.114 39.8039 140.751 36.491 142.565C35.9102 142.876 34.4151 143.252 32.1994 142.647Z" fill="#181820"/>
<path fill-rule="evenodd" clip-rule="evenodd" d="M163.94 179.862C160.164 179.569 156.658 177.444 158.196 175.098C160.164 172.102 168.78 174.347 169.027 177.15C169.189 179.047 167.005 180.101 163.94 179.862Z" fill="#181820"/>
<path fill-rule="evenodd" clip-rule="evenodd" d="M301.467 191.544C300.413 191.663 298.8 191.654 297.961 191.452C296.831 191.177 295.325 190.582 294.949 189.482C294.465 188.09 295.895 186.322 298.929 186.019C306.361 185.277 307.598 190.82 301.478 191.535L301.467 191.544Z" fill="#181820"/>
<path fill-rule="evenodd" clip-rule="evenodd" d="M409.265 183.307C404.909 184.627 403.554 181.374 406.727 180.495C408.523 180 411.513 180.046 411.115 181.988C411.051 182.309 410.416 182.959 409.265 183.298V183.307Z" fill="#181820"/>
<path fill-rule="evenodd" clip-rule="evenodd" d="M60.7672 151.095C54.5502 149.546 54.959 144.461 60.3693 145.167C67.4468 146.092 67.9846 152.89 60.7672 151.095Z" fill="#181820"/>
<path fill-rule="evenodd" clip-rule="evenodd" d="M193.39 182.959C189.281 182.611 185.84 179.725 188.55 177.664C191.852 175.135 199.586 177.719 199.156 180.595C198.908 182.309 196.402 183.206 193.39 182.959Z" fill="#181820"/>
<path fill-rule="evenodd" clip-rule="evenodd" d="M331.488 188.575C328.25 189.033 325.131 187.806 325.626 185.827C325.991 184.361 328.82 183.472 331.197 183.573C336.145 183.793 336.457 187.87 331.499 188.575H331.488Z" fill="#181820"/>
<path fill-rule="evenodd" clip-rule="evenodd" d="M89.9488 158.305C87.6792 157.828 86.6359 157.05 86.0335 156.39C82.5916 152.643 91.0889 151.195 94.434 154.787C96.4024 156.903 94.0038 159.157 89.9595 158.305H89.9488Z" fill="#181820"/>
<path fill-rule="evenodd" clip-rule="evenodd" d="M223.991 184.892C220.355 184.819 217.537 183.225 217.516 181.365C217.494 179.23 220.743 178.003 224.421 178.525C230.445 179.368 230.757 183.848 226.228 184.782C225.604 184.911 224.927 184.911 223.98 184.892H223.991Z" fill="#181820"/>
<path fill-rule="evenodd" clip-rule="evenodd" d="M118.979 164.361C112.461 163.051 113.999 157.563 120.195 159.084C126.272 160.577 125.067 165.579 118.979 164.361Z" fill="#181820"/>
<path fill-rule="evenodd" clip-rule="evenodd" d="M361.551 184.361C354.419 185.872 354.602 179.468 361.518 180.101C364.39 180.366 366.058 183.408 361.551 184.361Z" fill="#181820"/>
<path fill-rule="evenodd" clip-rule="evenodd" d="M254.269 185.359C250.645 185.442 247.74 183.958 247.622 182.098C247.482 179.963 250.645 178.616 254.345 178.983C260.39 179.578 260.96 184.031 256.496 185.158C255.872 185.314 255.205 185.341 254.269 185.359Z" fill="#181820"/>
<path fill-rule="evenodd" clip-rule="evenodd" d="M20.1634 129.757C17.2485 128.822 15.2371 126.733 15.7642 125.194C16.4095 123.334 19.8085 123.041 22.8739 124.562C26.6063 126.403 26.5956 129.885 23.2612 130.224C22.4222 130.306 21.7123 130.26 20.1526 129.757H20.1634Z" fill="#181820"/>
<path fill-rule="evenodd" clip-rule="evenodd" d="M149.064 169.482C142.75 168.731 142.32 163.664 147.709 163.683C154.765 163.701 156.4 170.353 149.064 169.482Z" fill="#181820"/>
<path fill-rule="evenodd" clip-rule="evenodd" d="M390.969 178.965C388.549 179.533 386.366 179.001 386.398 177.471C386.441 175.382 393.379 174.283 393.357 177.114C393.357 177.975 392.841 178.516 390.969 178.965Z" fill="#181820"/>
<path fill-rule="evenodd" clip-rule="evenodd" d="M284.602 184.416C280.88 184.737 277.019 183.225 277.987 180.678C279.235 177.425 288.065 178.223 288.915 180.925C289.496 182.758 287.614 184.15 284.602 184.416Z" fill="#181820"/>
<path fill-rule="evenodd" clip-rule="evenodd" d="M48.1292 138.744C41.4282 136.747 43.8483 131.085 50.1837 133.486C52.8081 134.475 54.2387 136.436 53.6364 137.746C52.9802 139.175 51.0011 139.606 48.1292 138.744Z" fill="#181820"/>
<path fill-rule="evenodd" clip-rule="evenodd" d="M179.139 173.202C178.031 173.138 176.45 172.817 175.783 172.542C173.104 171.443 171.566 167.448 177.063 167.219C181.301 167.045 185.85 169.784 183.194 172.24C182.731 172.67 181.408 173.33 179.149 173.211L179.139 173.202Z" fill="#181820"/>
<path fill-rule="evenodd" clip-rule="evenodd" d="M314.45 182.226C306.071 183.307 306.791 175.776 314.923 176.949C316.87 177.233 319.172 178.488 318.15 180.44C317.763 181.191 316.709 181.933 314.45 182.226Z" fill="#181820"/>
<path fill-rule="evenodd" clip-rule="evenodd" d="M419.806 172.212C415.762 173.321 415.514 170.078 418.698 169.546C421.505 169.07 422.936 171.36 419.806 172.212Z" fill="#181820"/>
<path fill-rule="evenodd" clip-rule="evenodd" d="M76.6862 146.614C70.3508 144.91 72.3622 139.532 78.3749 141.438C84.2585 143.298 82.6128 148.209 76.6862 146.614Z" fill="#181820"/>
<path fill-rule="evenodd" clip-rule="evenodd" d="M208.793 175.685C205.082 175.621 201.489 173.724 202.823 171.296C204.523 168.19 213.106 169.894 213.558 172.68C213.859 174.558 211.805 175.749 208.804 175.694L208.793 175.685Z" fill="#181820"/>
<path fill-rule="evenodd" clip-rule="evenodd" d="M343.739 178.754C340.275 179.285 337.178 177.618 338.49 175.648C340.286 172.954 349.343 173.66 347.052 177.178C346.718 177.691 345.869 178.424 343.739 178.745V178.754Z" fill="#181820"/>
<path fill-rule="evenodd" clip-rule="evenodd" d="M105.997 153.211C102.845 152.661 100.511 150.572 101.802 148.877C102.759 147.613 105.728 147.64 107.847 148.456C112.268 150.16 110.826 154.054 105.997 153.211Z" fill="#181820"/>
<path fill-rule="evenodd" clip-rule="evenodd" d="M237.974 176.995C233.93 176.903 230.337 174.237 232.822 172.011C235.855 169.299 243.61 171.397 243.417 174.292C243.309 176.005 240.932 177.068 237.963 176.995H237.974Z" fill="#181820"/>
<path fill-rule="evenodd" clip-rule="evenodd" d="M8.67566 116.747C5.90059 115.712 4.02901 113.504 4.96479 111.937C7.07299 108.373 16.1942 112.954 14.4194 116.078C13.5804 117.553 11.7411 117.883 8.67566 116.747Z" fill="#181820"/>
<path fill-rule="evenodd" clip-rule="evenodd" d="M135.404 158.781C132.134 158.433 129.133 156.436 130.736 154.393C132.801 151.773 142.255 154.833 139.061 157.874C138.383 158.516 137.415 158.992 135.393 158.781H135.404Z" fill="#181820"/>
<path fill-rule="evenodd" clip-rule="evenodd" d="M373.361 174.036C367.918 175.282 366.638 170.994 370.93 170.096C373.146 169.629 376.523 170.023 376.082 172.212C375.964 172.826 375.007 173.66 373.361 174.036Z" fill="#181820"/>
<path fill-rule="evenodd" clip-rule="evenodd" d="M267.898 176.903C264.176 177.059 260.971 175.382 261.487 173.275C261.885 171.589 264.241 170.655 266.747 170.646C273.975 170.627 274.986 176.619 267.898 176.903Z" fill="#181820"/>
<path fill-rule="evenodd" clip-rule="evenodd" d="M36.8246 126.394C28.8113 124.168 33.4472 117.718 40.0299 121.868C41.6111 122.867 42.9878 124.864 41.0517 126.22C40.2988 126.743 38.9758 126.999 36.8246 126.404V126.394Z" fill="#181820"/>
<path fill-rule="evenodd" clip-rule="evenodd" d="M163.854 163.06C157.39 162.171 158.476 156.61 164.65 157.737C170.695 158.836 169.888 163.903 163.854 163.06Z" fill="#181820"/>
<path fill-rule="evenodd" clip-rule="evenodd" d="M401.843 168.2C397.358 169.143 397.003 165.369 400.854 164.81C404.511 164.287 405.866 167.357 401.843 168.2Z" fill="#181820"/>
<path fill-rule="evenodd" clip-rule="evenodd" d="M297.853 175.41C296.767 175.529 295.154 175.465 294.454 175.309C291.615 174.668 289.227 170.994 294.508 169.876C298.574 169.015 303.586 170.966 301.564 173.797C301.209 174.292 300.08 175.162 297.864 175.41H297.853Z" fill="#181820"/>
<path fill-rule="evenodd" clip-rule="evenodd" d="M64.93 134.823C62.1872 134.191 60.1865 132.413 60.4124 131.076C61.1438 126.752 72.427 130.737 69.2432 134.228C68.4687 135.07 66.651 135.217 64.93 134.823Z" fill="#181820"/>
<path fill-rule="evenodd" clip-rule="evenodd" d="M193.487 166.166C187.259 165.817 186.463 160.788 191.734 160.467C198.618 160.055 200.726 166.578 193.487 166.166Z" fill="#181820"/>
<path fill-rule="evenodd" clip-rule="evenodd" d="M326.981 172.698C324.195 173.119 321.506 172.24 321.043 170.939C319.548 166.752 331.681 166.285 330.563 170.591C330.294 171.635 328.723 172.432 326.981 172.689V172.698Z" fill="#181820"/>
<path fill-rule="evenodd" clip-rule="evenodd" d="M430.336 160.879C427.088 161.777 426.593 159.129 429.261 158.552C431.638 158.039 433.283 160.055 430.336 160.879Z" fill="#181820"/>
<path fill-rule="evenodd" clip-rule="evenodd" d="M92.7344 141.841C89.9055 141.209 88.1954 139.596 88.7977 138.076C90.0562 134.842 98.6503 137.526 97.5209 140.595C97.0476 141.869 95.4557 142.446 92.7452 141.841H92.7344Z" fill="#181820"/>
<path fill-rule="evenodd" clip-rule="evenodd" d="M223.142 168.117C222.055 168.117 220.485 167.897 219.807 167.668C217.097 166.743 215.29 162.849 220.646 162.281C224.766 161.851 229.423 164.306 227.025 166.899C226.605 167.357 225.357 168.099 223.142 168.117Z" fill="#181820"/>
<path fill-rule="evenodd" clip-rule="evenodd" d="M-1.28436 103.792C-2.24166 103.462 -3.61843 102.784 -4.19926 102.262C-4.99521 101.557 -5.90948 100.421 -5.5868 99.3121C-5.17807 97.9012 -2.93004 96.9667 -0.197989 97.9562C6.51381 100.375 4.29805 105.698 -1.28436 103.792Z" fill="#181820"/>
<path fill-rule="evenodd" clip-rule="evenodd" d="M355.538 168.74C349.902 169.528 348.783 164.581 354.57 164.123C359.615 163.729 360.862 167.98 355.538 168.74Z" fill="#181820"/>
<path fill-rule="evenodd" clip-rule="evenodd" d="M120.916 147.65C118.861 147.173 117.517 145.973 117.334 145.185C116.172 140.357 129.445 143.774 125.218 147.256C124.67 147.704 123.411 148.227 120.916 147.65Z" fill="#181820"/>
<path fill-rule="evenodd" clip-rule="evenodd" d="M252.312 168.804C248.676 168.96 245.019 167.283 246.127 164.782C247.547 161.585 256.066 162.767 256.722 165.515C257.163 167.366 255.248 168.676 252.312 168.804Z" fill="#181820"/>
<path fill-rule="evenodd" clip-rule="evenodd" d="M25.4553 113.779C20.9055 112.34 19.9375 108.309 23.9603 107.97C26.0792 107.787 29.0802 109.015 30.2203 110.691C31.9951 113.293 28.822 114.841 25.4553 113.779Z" fill="#181820"/>
<path fill-rule="evenodd" clip-rule="evenodd" d="M150.226 152.661C146.838 152.249 144.579 149.858 146.526 148.337C149.193 146.257 157.282 149.308 153.872 152.047C153.366 152.45 152.323 152.918 150.236 152.661H150.226Z" fill="#181820"/>
<path fill-rule="evenodd" clip-rule="evenodd" d="M384.386 163.554C379.234 164.562 378.793 160.274 383.117 159.679C387.505 159.065 388.861 162.675 384.386 163.554Z" fill="#181820"/>
<path fill-rule="evenodd" clip-rule="evenodd" d="M280.945 168.199C277.836 168.309 274.975 166.99 274.986 165.121C275.007 160.888 285.85 161.575 285.903 165.259C285.925 166.908 284.268 168.071 280.945 168.199Z" fill="#181820"/>
<path fill-rule="evenodd" clip-rule="evenodd" d="M52.851 122.601C46.6878 120.87 48.6346 115.51 54.3784 117.507C59.864 119.422 58.3151 124.141 52.851 122.601Z" fill="#181820"/>
<path fill-rule="evenodd" clip-rule="evenodd" d="M179.321 156.436C176.105 156.298 173.029 154.493 174.449 152.359C176.266 149.619 185.732 152.084 182.838 155.309C182.225 155.987 181.311 156.518 179.321 156.436Z" fill="#181820"/>
<path fill-rule="evenodd" clip-rule="evenodd" d="M412.696 157.132C408.362 158.25 408.093 154.677 411.545 154.118C414.622 153.623 416.138 156.243 412.696 157.132Z" fill="#181820"/>
<path fill-rule="evenodd" clip-rule="evenodd" d="M310.492 166.166C309.491 166.294 307.953 166.312 307.147 166.12C306.06 165.863 304.619 165.286 304.242 164.196C303.758 162.803 305.092 161.026 307.964 160.678C315.031 159.835 316.3 165.378 310.492 166.166Z" fill="#181820"/>
<path fill-rule="evenodd" clip-rule="evenodd" d="M80.9675 130.361C77.6008 129.674 75.1485 127.036 77.6869 125.506C80.462 123.838 88.3569 127.64 84.3449 130.114C83.7426 130.49 82.5163 130.682 80.9675 130.361Z" fill="#181820"/>
<path fill-rule="evenodd" clip-rule="evenodd" d="M207.448 158.864C201.07 158.369 201.715 152.762 207.825 153.495C213.816 154.219 213.418 159.312 207.448 158.864Z" fill="#181820"/>
<path fill-rule="evenodd" clip-rule="evenodd" d="M339.049 162.95C333.294 163.894 331.552 159.239 336.263 158.167C339.167 157.508 343.567 158.534 342.394 161.136C342.061 161.869 340.974 162.629 339.049 162.95Z" fill="#181820"/>
<path fill-rule="evenodd" clip-rule="evenodd" d="M108.718 136.802C105.545 136.271 103.2 133.825 105.416 132.34C108.202 130.481 115.602 133.989 112.063 136.408C111.568 136.747 110.321 137.068 108.718 136.802Z" fill="#181820"/>
<path fill-rule="evenodd" clip-rule="evenodd" d="M236.63 160.238C230.52 160.265 229.359 155.3 234.478 154.658C241.179 153.825 243.729 160.211 236.63 160.238Z" fill="#181820"/>
<path fill-rule="evenodd" clip-rule="evenodd" d="M14.4519 100.778C8.6006 98.4601 11.4294 93.357 16.9258 95.8398C22.3146 98.2677 19.916 102.949 14.4519 100.778Z" fill="#181820"/>
<path fill-rule="evenodd" clip-rule="evenodd" d="M367.467 158.387C363.175 159.258 360.647 156.088 364.229 154.594C369.026 152.597 373.404 157.178 367.467 158.387Z" fill="#181820"/>
<path fill-rule="evenodd" clip-rule="evenodd" d="M136.673 141.978C130.865 141.062 132.478 136.28 137.545 137.507C142.159 138.634 141.471 142.739 136.673 141.978Z" fill="#181820"/>
<path fill-rule="evenodd" clip-rule="evenodd" d="M265.746 160.394C264.681 160.467 263.122 160.33 262.455 160.137C259.734 159.368 257.668 155.602 262.853 154.713C266.843 154.035 271.587 156.207 269.446 158.946C269.07 159.423 267.919 160.238 265.746 160.394Z" fill="#181820"/>
<path fill-rule="evenodd" clip-rule="evenodd" d="M42.052 110.453C38.9865 109.647 36.5341 107.265 38.524 105.487C41.0732 103.206 49.4952 107.549 45.7736 110.086C44.9884 110.618 43.9451 110.948 42.052 110.453Z" fill="#181820"/>
<path fill-rule="evenodd" clip-rule="evenodd" d="M165.284 146.266C162.079 146.055 159.852 144.186 161.272 142.491C163.155 140.219 170.91 142.29 168.447 145.322C168.006 145.872 166.994 146.385 165.284 146.275V146.266Z" fill="#181820"/>
<path fill-rule="evenodd" clip-rule="evenodd" d="M395.239 152.789C390.495 153.852 390.033 149.812 394.099 149.244C397.82 148.731 399.165 151.91 395.239 152.789Z" fill="#181820"/>
<path fill-rule="evenodd" clip-rule="evenodd" d="M293.863 159.258C290.883 159.422 288.044 158.176 288.087 156.298C288.173 152.212 298.37 152.835 298.51 156.317C298.574 157.929 296.993 159.083 293.863 159.258Z" fill="#181820"/>
<path fill-rule="evenodd" clip-rule="evenodd" d="M68.8779 118.469C65.651 117.645 63.8763 114.997 66.049 113.742C69.0177 112.01 76.3641 116.023 72.5349 118.304C71.9756 118.634 70.8677 118.973 68.8779 118.469Z" fill="#181820"/>
<path fill-rule="evenodd" clip-rule="evenodd" d="M193.336 149.418C190.002 149.216 187.614 146.972 189.4 145.332C191.841 143.096 199.973 145.634 196.843 148.575C196.38 149.006 195.391 149.537 193.336 149.418Z" fill="#181820"/>
<path fill-rule="evenodd" clip-rule="evenodd" d="M322.388 156.711C320.204 156.976 318.978 156.573 318.182 156.152C313.643 153.742 320.441 149.739 324.84 152.038C327.433 153.394 326.271 156.234 322.388 156.711Z" fill="#181820"/>
<path fill-rule="evenodd" clip-rule="evenodd" d="M423.172 145.79C421 146.495 419.429 145.707 419.913 144.471C420.44 143.142 424.495 142.492 424.657 144.388C424.7 144.883 424.377 145.396 423.162 145.799L423.172 145.79Z" fill="#181820"/>
<path fill-rule="evenodd" clip-rule="evenodd" d="M95.9292 125.396C90.605 124.095 92.1323 119.221 97.4136 120.888C102.017 122.336 100.963 126.623 95.9292 125.396Z" fill="#181820"/>
<path fill-rule="evenodd" clip-rule="evenodd" d="M222.055 151.305C218.904 151.36 215.774 149.757 216.989 147.54C218.559 144.7 227.971 146.578 225.4 149.968C224.862 150.682 224.002 151.269 222.055 151.305Z" fill="#181820"/>
<path fill-rule="evenodd" clip-rule="evenodd" d="M4.44847 87.7866C-1.26301 85.3679 1.73796 80.3381 7.09449 82.9126C12.3327 85.4321 9.79425 90.0496 4.44847 87.7866Z" fill="#181820"/>
<path fill-rule="evenodd" clip-rule="evenodd" d="M350.074 153.046C348.02 153.257 346.299 152.57 345.782 151.892C342.652 147.778 356.076 146.734 353.785 151.314C353.484 151.91 352.58 152.789 350.074 153.046Z" fill="#181820"/>
<path fill-rule="evenodd" clip-rule="evenodd" d="M123.916 131.287C119.657 130.618 118.904 126.862 122.83 126.724C128.079 126.532 129.811 132.212 123.916 131.287Z" fill="#181820"/>
<path fill-rule="evenodd" clip-rule="evenodd" d="M249.688 152.093C243.428 151.983 243.61 146.349 249.645 146.715C255.539 147.082 255.55 152.194 249.688 152.093Z" fill="#181820"/>
<path fill-rule="evenodd" clip-rule="evenodd" d="M31.1345 97.8462C25.7027 96.1604 27.0579 91.4146 31.6938 92.5415C34.5442 93.2286 37.6311 96.023 35.0497 97.7454C34.329 98.2309 32.9307 98.405 31.1345 97.8462Z" fill="#181820"/>
<path fill-rule="evenodd" clip-rule="evenodd" d="M378.18 148.007C372.909 149.006 372.619 144.443 377.083 143.939C381.385 143.444 382.665 147.164 378.18 148.007Z" fill="#181820"/>
<path fill-rule="evenodd" clip-rule="evenodd" d="M151.613 135.868C148.505 135.52 146.87 133.687 148.333 132.23C150.194 130.38 157.368 132.524 154.7 135.235C154.292 135.657 153.195 136.042 151.613 135.868Z" fill="#181820"/>
<path fill-rule="evenodd" clip-rule="evenodd" d="M278.439 151.727C272.469 152.111 270.942 147.237 275.9 146.285C282.375 145.057 285.376 151.269 278.439 151.727Z" fill="#181820"/>
<path fill-rule="evenodd" clip-rule="evenodd" d="M57.1966 106.385C51.9906 104.644 54.0558 99.9259 59.1649 101.832C63.7148 103.526 62.7144 108.236 57.1966 106.385Z" fill="#181820"/>
<path fill-rule="evenodd" clip-rule="evenodd" d="M179.052 139.486C177.89 139.34 176.868 138.937 176.309 138.46C173.233 135.886 179.514 133.632 182.376 136.344C184.086 137.966 182.257 139.88 179.063 139.477L179.052 139.486Z" fill="#181820"/>
<path fill-rule="evenodd" clip-rule="evenodd" d="M405.898 141.804C405.092 142.024 403.887 142.116 403.199 141.878C401.79 141.401 401.467 139.257 404.317 138.68C405.769 138.387 407.77 138.341 407.921 140.009C407.985 140.76 407.447 141.383 405.898 141.804Z" fill="#181820"/>
<path fill-rule="evenodd" clip-rule="evenodd" d="M306.76 149.995C305.791 150.123 304.296 150.133 303.522 149.94C302.479 149.675 301.08 149.088 300.725 147.998C300.263 146.605 301.564 144.828 304.35 144.507C311.191 143.701 312.396 149.253 306.76 150.004V149.995Z" fill="#181820"/>
<path fill-rule="evenodd" clip-rule="evenodd" d="M84.7103 114.008C81.6233 113.412 79.7948 111.296 81.4835 109.784C83.7315 107.778 90.9058 110.773 87.9694 113.458C87.4316 113.953 86.356 114.319 84.7103 114.008Z" fill="#181820"/>
<path fill-rule="evenodd" clip-rule="evenodd" d="M207.556 142.107C204.415 142.107 202.103 140.375 203.361 138.589C205.028 136.207 212.751 137.801 210.578 140.962C210.18 141.539 209.234 142.098 207.556 142.098V142.107Z" fill="#181820"/>
<path fill-rule="evenodd" clip-rule="evenodd" d="M-4.4573 74.9234C-6.95271 73.9797 -8.51232 72.0008 -8.0283 70.7181C-6.45791 66.5678 3.51297 71.79 -0.219396 74.8409C-1.12291 75.5738 -2.89767 75.5097 -4.4573 74.9142V74.9234Z" fill="#181820"/>
<path fill-rule="evenodd" clip-rule="evenodd" d="M334.284 147.036C328.143 147.925 326.981 142.4 332.908 141.914C338.544 141.456 339.738 146.248 334.284 147.036Z" fill="#181820"/>
<path fill-rule="evenodd" clip-rule="evenodd" d="M432.735 134.457C431.165 134.988 430.261 134.631 430.014 133.962C429.454 132.45 433.563 131.424 434.026 133.064C434.198 133.696 433.821 134.09 432.735 134.457Z" fill="#181820"/>
<path fill-rule="evenodd" clip-rule="evenodd" d="M111.138 120.192C110.009 119.926 109.062 119.422 108.568 118.891C105.9 116.023 112.44 114.438 114.871 117.425C116.323 119.211 114.236 120.925 111.138 120.192Z" fill="#181820"/>
<path fill-rule="evenodd" clip-rule="evenodd" d="M235.199 143.453C231.929 143.453 229.423 141.355 231.047 139.624C233.263 137.242 241.395 139.285 238.555 142.4C238.136 142.858 237.211 143.453 235.199 143.453Z" fill="#181820"/>
<path fill-rule="evenodd" clip-rule="evenodd" d="M20.7763 85.1387C15.0541 83.0224 18.0658 78.2308 22.9813 80.4571C27.7463 82.6101 25.6811 86.9528 20.7763 85.1387Z" fill="#181820"/>
<path fill-rule="evenodd" clip-rule="evenodd" d="M362.099 142.748C359.066 143.444 356.302 142.308 356.947 140.302C357.818 137.636 365.756 137.425 364.659 140.971C364.455 141.612 363.723 142.372 362.099 142.748Z" fill="#181820"/>
<path fill-rule="evenodd" clip-rule="evenodd" d="M138.738 125.441C132.736 124.672 135.554 119.459 140.578 121.832C142.729 122.849 142.643 125.945 138.738 125.441Z" fill="#181820"/>
<path fill-rule="evenodd" clip-rule="evenodd" d="M263.509 143.701C260.433 143.948 257.249 142.528 258.271 140.247C259.572 137.324 268.909 138.625 266.671 142.162C266.198 142.913 265.402 143.545 263.509 143.701Z" fill="#181820"/>
<path fill-rule="evenodd" clip-rule="evenodd" d="M46.419 94.1357C44.5582 93.4303 43.5257 92.0927 43.5042 91.2956C43.3643 86.4215 55.2821 91.3322 50.5709 94.2548C49.9578 94.6305 48.6671 94.9969 46.419 94.1357Z" fill="#181820"/>
<path fill-rule="evenodd" clip-rule="evenodd" d="M389.14 137.288C384.451 138.497 382.902 134.054 388.011 133.568C391.743 133.22 392.69 136.372 389.14 137.288Z" fill="#181820"/>
<path fill-rule="evenodd" clip-rule="evenodd" d="M290.7 142.831C288.581 142.996 287.409 142.547 286.667 142.089C282.429 139.477 289.259 135.785 293.379 138.286C295.81 139.761 294.497 142.547 290.711 142.84L290.7 142.831Z" fill="#181820"/>
<path fill-rule="evenodd" clip-rule="evenodd" d="M165.887 129.381C161.133 128.813 162.509 124.837 166.382 125.551C170.189 126.257 170.028 129.876 165.887 129.381Z" fill="#181820"/>
<path fill-rule="evenodd" clip-rule="evenodd" d="M73.0294 102.244C67.5868 100.76 69.9208 96.197 74.5997 97.9194C78.8484 99.4861 77.5254 103.471 73.0294 102.244Z" fill="#181820"/>
<path fill-rule="evenodd" clip-rule="evenodd" d="M193.466 132.514C187.464 132.249 189.658 126.825 194.885 128.767C197.123 129.592 197.381 132.679 193.466 132.514Z" fill="#181820"/>
<path fill-rule="evenodd" clip-rule="evenodd" d="M415.923 130.691C412.276 131.919 411.018 128.813 413.933 128.007C415.299 127.631 417.439 127.613 417.504 129.198C417.515 129.674 417.095 130.306 415.934 130.691H415.923Z" fill="#181820"/>
<path fill-rule="evenodd" clip-rule="evenodd" d="M318.613 140.604C310.911 141.731 311.481 134.191 318.978 135.327C320.775 135.602 322.904 136.839 322.001 138.799C321.657 139.56 320.689 140.293 318.613 140.604Z" fill="#181820"/>
<path fill-rule="evenodd" clip-rule="evenodd" d="M99.1776 109.033C98.4355 108.822 97.22 108.199 96.8221 107.732C95.4668 106.128 97.7686 103.334 101.738 105.322C104.652 106.779 103.663 110.297 99.1776 109.033Z" fill="#181820"/>
<path fill-rule="evenodd" clip-rule="evenodd" d="M220.915 134.557C216.731 134.512 215.322 130.92 219.044 130.215C224.024 129.271 226.723 134.622 220.915 134.557Z" fill="#181820"/>
<path fill-rule="evenodd" clip-rule="evenodd" d="M11.7413 72.4405C8.83716 71.4328 7.26678 69.0599 9.03078 67.6123C11.537 65.5509 18.6683 69.6462 15.5597 72.2756C14.8391 72.8895 13.4623 73.0361 11.7413 72.4405Z" fill="#181820"/>
<path fill-rule="evenodd" clip-rule="evenodd" d="M345.427 137.187C339.415 138.103 338.823 132.698 344.233 132.24C349.471 131.791 350.569 136.399 345.427 137.187Z" fill="#181820"/>
<path fill-rule="evenodd" clip-rule="evenodd" d="M126.133 114.695C121.314 113.779 123.099 109.757 127.025 110.746C131.005 111.754 130.327 115.492 126.133 114.695Z" fill="#181820"/>
<path fill-rule="evenodd" clip-rule="evenodd" d="M248.655 135.318C245.59 135.501 243.202 133.925 244.288 132.065C245.74 129.592 253.377 130.71 251.516 133.999C251.172 134.594 250.301 135.217 248.655 135.318Z" fill="#181820"/>
<path fill-rule="evenodd" clip-rule="evenodd" d="M36.986 82.0605C34.0711 81.1718 32.3286 78.4966 34.738 77.2964C37.7497 75.7939 44.085 80.0999 40.2451 82.0697C39.7073 82.3445 38.4596 82.5094 36.9968 82.0697L36.986 82.0605Z" fill="#181820"/>
<path fill-rule="evenodd" clip-rule="evenodd" d="M372.21 132.496C371.081 132.688 369.984 132.588 369.285 132.294C365.455 130.728 370.382 126.843 374.071 128.602C376.276 129.656 375.329 131.983 372.221 132.496H372.21Z" fill="#181820"/>
<path fill-rule="evenodd" clip-rule="evenodd" d="M153.055 119.239C148.473 118.607 150.011 114.759 153.765 115.62C157.207 116.408 156.852 119.77 153.055 119.239Z" fill="#181820"/>
<path fill-rule="evenodd" clip-rule="evenodd" d="M275.578 135.061C272.383 135.263 269.78 133.321 271.221 131.488C273.19 128.978 281.289 130.526 278.772 133.815C278.406 134.301 277.546 134.942 275.578 135.071V135.061Z" fill="#181820"/>
<path fill-rule="evenodd" clip-rule="evenodd" d="M62.7895 90.4434C56.3789 88.9134 60.2941 83.4529 65.2742 86.742C67.3394 88.1071 66.8338 91.4145 62.7895 90.4434Z" fill="#181820"/>
<path fill-rule="evenodd" clip-rule="evenodd" d="M399.176 126.458C394.217 127.915 393.916 122.812 398.885 123.05C400.94 123.151 402.478 125.487 399.176 126.458Z" fill="#181820"/>
<path fill-rule="evenodd" clip-rule="evenodd" d="M179.891 122.711C175.718 122.226 177.019 118.616 180.493 119.257C183.796 119.871 183.634 123.142 179.891 122.711Z" fill="#181820"/>
<path fill-rule="evenodd" clip-rule="evenodd" d="M303.253 133.632C300.263 134.063 297.047 132.835 297.854 130.499C298.897 127.503 308.115 128.254 306.211 131.919C305.802 132.688 305.082 133.376 303.253 133.632Z" fill="#181820"/>
<path fill-rule="evenodd" clip-rule="evenodd" d="M88.5073 97.7363C85.5816 97.0858 84.2909 95.116 85.9473 93.815C88.034 92.1659 94.5845 94.9969 91.5728 97.4156C91.1103 97.7913 89.9916 98.0661 88.5073 97.7363Z" fill="#181820"/>
<path fill-rule="evenodd" clip-rule="evenodd" d="M2.59837 59.3666C-0.316535 58.1756 -1.46743 55.3812 0.855884 54.4009C4.03969 53.0633 10.2352 57.8457 6.1264 59.6323C5.52406 59.8888 4.39463 60.0904 2.59837 59.3574V59.3666Z" fill="#181820"/>
<path fill-rule="evenodd" clip-rule="evenodd" d="M207.169 125.203C204.932 125.148 203.264 124.104 203.824 122.647C204.577 120.668 210.815 121.337 209.836 124.031C209.535 124.846 208.911 125.24 207.169 125.203Z" fill="#181820"/>
<path fill-rule="evenodd" clip-rule="evenodd" d="M329.735 131.012C323.797 131.855 322.689 126.33 328.422 125.89C333.876 125.469 335.005 130.27 329.735 131.012Z" fill="#181820"/>
<path fill-rule="evenodd" clip-rule="evenodd" d="M425.442 119.349C423.797 119.99 422.818 119.651 422.441 119.156C421.108 117.352 426.507 115.757 426.582 118.167C426.593 118.515 426.367 118.992 425.431 119.349H425.442Z" fill="#181820"/>
<path fill-rule="evenodd" clip-rule="evenodd" d="M114.752 103.92C109.536 103.151 111.343 98.4325 115.979 100.237C118.85 101.355 118.248 104.433 114.752 103.92Z" fill="#181820"/>
<path fill-rule="evenodd" clip-rule="evenodd" d="M234.285 126.697C229.402 126.852 229.423 122.62 233.166 122.565C237.243 122.51 238.824 126.55 234.285 126.697Z" fill="#181820"/>
<path fill-rule="evenodd" clip-rule="evenodd" d="M27.1012 69.3806C22.304 67.4841 24.7241 62.8849 29.4137 65.1295C33.501 67.0902 31.651 71.1763 27.1012 69.3806Z" fill="#181820"/>
<path fill-rule="evenodd" clip-rule="evenodd" d="M356.657 127.017C353.753 127.622 350.806 126.339 351.655 124.278C352.688 121.767 360.884 121.648 359.421 125.313C359.185 125.899 358.453 126.632 356.646 127.008L356.657 127.017Z" fill="#181820"/>
<path fill-rule="evenodd" clip-rule="evenodd" d="M140.621 108.831C140.621 108.831 140.556 108.895 140.459 108.877C136.372 107.915 137.953 104.342 141.589 105.267C145.052 106.147 140.621 108.831 140.621 108.831Z" fill="#181820"/>
<path fill-rule="evenodd" clip-rule="evenodd" d="M260.949 127.045C256.862 127.255 255.205 123.756 258.776 122.821C263.563 121.584 266.607 126.752 260.949 127.045Z" fill="#181820"/>
<path fill-rule="evenodd" clip-rule="evenodd" d="M52.3778 78.3681C48.4733 77.2138 48.5163 73.4391 52.2594 73.7506C57.2718 74.172 57.7881 79.9531 52.3778 78.3681Z" fill="#181820"/>
<path fill-rule="evenodd" clip-rule="evenodd" d="M383.106 121.841C378.427 123.105 377.126 119.01 380.74 118.112C384.666 117.132 387.452 120.668 383.106 121.841Z" fill="#181820"/>
<path fill-rule="evenodd" clip-rule="evenodd" d="M167.694 112.808C163.66 112.633 164.047 109.216 166.962 109.418C168.608 109.537 170.931 110.526 169.748 112.185C169.555 112.459 168.769 112.853 167.694 112.808Z" fill="#181820"/>
<path fill-rule="evenodd" clip-rule="evenodd" d="M288.065 126.156C285.086 126.523 282.633 125.093 283.548 123.169C284.763 120.622 292.314 121.273 290.754 124.672C290.464 125.286 289.657 125.964 288.065 126.156Z" fill="#181820"/>
<path fill-rule="evenodd" clip-rule="evenodd" d="M77.4396 86.0184C73.2448 84.7175 74.8582 80.6038 79.0208 82.0697C83.0221 83.4806 81.656 87.3286 77.4396 86.0184Z" fill="#181820"/>
<path fill-rule="evenodd" clip-rule="evenodd" d="M-6.22161 46.1096C-7.89956 45.2301 -8.68476 43.81 -8.57719 43.0221C-7.89956 38.2122 2.82427 44.2314 -2.22034 46.641C-2.87646 46.9525 -4.18872 47.1815 -6.23237 46.1096H-6.22161Z" fill="#181820"/>
<path fill-rule="evenodd" clip-rule="evenodd" d="M409.028 115.519C405.253 116.83 403.898 113.605 406.641 112.725C408.211 112.23 410.825 112.276 410.577 114.209C410.534 114.53 410.018 115.171 409.018 115.519H409.028Z" fill="#181820"/>
<path fill-rule="evenodd" clip-rule="evenodd" d="M314.342 124.315C311.234 124.699 308.545 122.913 309.803 120.998C311.524 118.378 319.559 119.45 317.365 122.876C317.042 123.38 316.257 124.076 314.353 124.306L314.342 124.315Z" fill="#181820"/>
<path fill-rule="evenodd" clip-rule="evenodd" d="M193.96 115.647C190.292 115.611 190.454 112.404 193.272 112.514C194.67 112.56 196.929 113.357 195.961 114.951C195.778 115.253 195.036 115.666 193.96 115.657V115.647Z" fill="#181820"/>
<path fill-rule="evenodd" clip-rule="evenodd" d="M103.125 92.6972C98.6612 91.6619 100.619 87.869 104.211 88.9592C107.75 90.0311 107.019 93.5951 103.125 92.6972Z" fill="#181820"/>
<path fill-rule="evenodd" clip-rule="evenodd" d="M18.7113 56.9113C15.8932 55.9676 14.581 53.6772 16.4956 52.4037C19.0448 50.6996 25.2618 54.4651 21.9274 56.7555C21.3251 57.1678 20.2172 57.4152 18.7113 56.9113Z" fill="#181820"/>
<path fill-rule="evenodd" clip-rule="evenodd" d="M340.684 121.319C334.876 122.189 334.327 116.783 339.555 116.362C344.632 115.95 345.675 120.558 340.684 121.319Z" fill="#181820"/>
<path fill-rule="evenodd" clip-rule="evenodd" d="M219.915 117.626C217.226 117.416 215.999 114.612 219.119 114.182C223.066 113.641 224.615 118.002 219.915 117.626Z" fill="#181820"/>
<path fill-rule="evenodd" clip-rule="evenodd" d="M129.262 98.3409C124.25 97.6629 126.81 93.0454 130.897 95.2259C132.586 96.1238 132.596 98.7898 129.262 98.3409Z" fill="#181820"/>
<path fill-rule="evenodd" clip-rule="evenodd" d="M246.826 118.543C244.632 118.634 242.933 117.691 243.363 116.197C243.944 114.173 250.085 114.466 249.332 117.214C249.107 118.048 248.526 118.479 246.826 118.543Z" fill="#181820"/>
<path fill-rule="evenodd" clip-rule="evenodd" d="M42.482 65.9999C41.4602 65.606 40.6642 65.0013 40.3093 64.4241C38.3517 61.2908 44.8806 60.5029 46.5801 63.7187C47.6019 65.6426 45.2786 67.081 42.482 65.9999Z" fill="#181820"/>
<path fill-rule="evenodd" clip-rule="evenodd" d="M366.875 116.811C361.54 117.846 360.841 112.908 365.67 112.404C370.059 111.946 371.274 115.959 366.875 116.811Z" fill="#181820"/>
<path fill-rule="evenodd" clip-rule="evenodd" d="M155.023 102.638C151.312 102.143 152.205 98.799 155.475 99.4861C158.272 100.072 158.315 103.078 155.023 102.638Z" fill="#181820"/>
<path fill-rule="evenodd" clip-rule="evenodd" d="M273.383 118.414C268.629 118.863 268.317 114.64 271.974 114.356C275.954 114.053 277.815 117.993 273.383 118.414Z" fill="#181820"/>
<path fill-rule="evenodd" clip-rule="evenodd" d="M67.7052 74.4102C62.1766 72.9535 65.8767 68.1619 70.1683 71.0754C72.0076 72.3214 71.3085 75.3539 67.7052 74.4102Z" fill="#181820"/>
<path fill-rule="evenodd" clip-rule="evenodd" d="M392.432 111.268C388.172 112.294 387.15 108.245 391.119 107.576C394.658 106.981 396.282 110.334 392.432 111.268Z" fill="#181820"/>
<path fill-rule="evenodd" clip-rule="evenodd" d="M180.967 105.964C179.192 105.826 178.472 105.002 178.633 104.205C179.009 102.299 183.677 103.096 183.183 104.992C182.978 105.78 182.193 106.055 180.967 105.964Z" fill="#181820"/>
<path fill-rule="evenodd" clip-rule="evenodd" d="M299.413 117.095C295.444 117.544 293.551 114.154 296.971 113.009C301.532 111.488 304.92 116.472 299.413 117.095Z" fill="#181820"/>
<path fill-rule="evenodd" clip-rule="evenodd" d="M92.8744 81.4649C90.7554 81.0068 89.4539 79.6875 90.379 78.3682C91.6374 76.5816 97.3812 78.3682 95.714 80.8052C95.2085 81.5473 94.5201 81.8222 92.8744 81.4649Z" fill="#181820"/>
<path fill-rule="evenodd" clip-rule="evenodd" d="M9.95585 44.039C5.07258 41.9501 8.2241 37.7632 12.3222 39.9895C16.0545 42.0143 13.9894 45.7614 9.95585 44.039Z" fill="#181820"/>
<path fill-rule="evenodd" clip-rule="evenodd" d="M418.235 104.379C417.568 104.644 417.117 104.754 416.633 104.773C414.223 104.846 413.944 101.768 417.515 101.648C418.859 101.603 420.634 103.435 418.235 104.379Z" fill="#181820"/>
<path fill-rule="evenodd" clip-rule="evenodd" d="M325.27 114.805C320.226 115.354 319.441 110.361 324.604 110.16C329.11 109.985 330.046 114.282 325.27 114.805Z" fill="#181820"/>
<path fill-rule="evenodd" clip-rule="evenodd" d="M207.18 108.327C205.071 108.327 204.093 107.109 205.018 106.101C206.007 105.029 209.664 105.661 209.008 107.475C208.836 107.943 208.352 108.327 207.18 108.327Z" fill="#181820"/>
<path fill-rule="evenodd" clip-rule="evenodd" d="M117.527 87.3744C114.978 86.7239 114.44 83.7738 117.56 83.8654C121.507 83.9753 121.98 88.5013 117.527 87.3744Z" fill="#181820"/>
<path fill-rule="evenodd" clip-rule="evenodd" d="M34.0602 53.8055C29.3813 52.3213 31.425 48.2718 35.0498 49.4995C36.9321 50.1408 39.0188 52.0006 37.2117 53.5673C36.7062 54.0071 35.4692 54.2544 34.0602 53.8055Z" fill="#181820"/>
<path fill-rule="evenodd" clip-rule="evenodd" d="M351.58 111.241C348.773 111.827 345.933 110.526 346.761 108.465C347.772 105.945 355.678 105.927 354.269 109.564C354.032 110.169 353.323 110.874 351.58 111.241Z" fill="#181820"/>
<path fill-rule="evenodd" clip-rule="evenodd" d="M233.22 109.747C229.649 109.931 229.552 106.724 232.316 106.66C233.682 106.623 235.941 107.283 235.124 108.923C234.962 109.243 234.285 109.701 233.231 109.756L233.22 109.747Z" fill="#181820"/>
<path fill-rule="evenodd" clip-rule="evenodd" d="M143.557 92.3858C139.997 92.0469 140.545 88.8769 143.278 89.2067C144.633 89.3716 146.73 90.3519 145.59 91.8453C145.375 92.1293 144.6 92.4866 143.557 92.3858Z" fill="#181820"/>
<path fill-rule="evenodd" clip-rule="evenodd" d="M258.658 110.224C256.023 110.169 254.614 107.448 257.615 106.834C261.423 106.055 263.262 110.315 258.658 110.224Z" fill="#181820"/>
<path fill-rule="evenodd" clip-rule="evenodd" d="M57.9171 62.3992C53.5286 60.9424 56.0348 57.2044 59.552 58.6245C63.1123 60.0721 61.7355 63.6635 57.9171 62.3992Z" fill="#181820"/>
<path fill-rule="evenodd" clip-rule="evenodd" d="M376.351 106.477C375.62 106.596 374.275 106.532 373.705 106.284C371.715 105.423 372.092 102.033 376.437 102.18C379.642 102.281 380.74 105.78 376.351 106.477Z" fill="#181820"/>
<path fill-rule="evenodd" clip-rule="evenodd" d="M168.909 96.0963C166.823 95.9589 165.962 94.7037 166.973 93.7509C168.049 92.7339 171.609 93.5951 170.802 95.3633C170.587 95.8214 170.082 96.1696 168.92 96.0963H168.909Z" fill="#181820"/>
<path fill-rule="evenodd" clip-rule="evenodd" d="M285.096 109.537C282.967 109.747 281.235 108.914 281.536 107.402C281.945 105.35 287.957 105.276 287.43 108.052C287.269 108.895 286.753 109.363 285.096 109.537Z" fill="#181820"/>
<path fill-rule="evenodd" clip-rule="evenodd" d="M82.4625 69.9944C78.2676 68.8309 80.4727 65.2303 83.8393 66.5221C86.9263 67.704 85.9367 70.9656 82.4625 69.9944Z" fill="#181820"/>
<path fill-rule="evenodd" clip-rule="evenodd" d="M401.671 100.402C397.788 101.346 397.282 97.5896 400.628 97.0307C403.801 96.4994 405.156 99.5594 401.671 100.402Z" fill="#181820"/>
<path fill-rule="evenodd" clip-rule="evenodd" d="M2.58793 31.3042C-3.22036 29.0595 1.63063 24.1855 5.70719 27.9785C7.40665 29.5543 6.25576 32.7243 2.58793 31.3042Z" fill="#181820"/>
<path fill-rule="evenodd" clip-rule="evenodd" d="M310.847 107.741C306.243 108.474 305.608 104.269 309.147 103.783C312.998 103.252 315.128 107.063 310.847 107.741Z" fill="#181820"/>
<path fill-rule="evenodd" clip-rule="evenodd" d="M194.412 98.7625C192.938 98.7258 192.433 98.1303 192.53 97.4798C192.745 96.0231 196.326 96.4262 195.961 97.9837C195.832 98.5334 195.391 98.7808 194.401 98.7533L194.412 98.7625Z" fill="#181820"/>
<path fill-rule="evenodd" clip-rule="evenodd" d="M107.288 76.4169C103.394 75.629 104.782 72.1292 108.073 73.1278C110.848 73.9707 110.536 77.0765 107.288 76.4169Z" fill="#181820"/>
<path fill-rule="evenodd" clip-rule="evenodd" d="M25.2617 41.2447C20.8302 39.4032 23.9387 35.6927 27.456 37.5067C30.8441 39.2566 29.0479 42.8114 25.2617 41.2447Z" fill="#181820"/>
<path fill-rule="evenodd" clip-rule="evenodd" d="M426.281 93.247C423.484 94.1174 422.893 91.4971 425.195 90.9382C427.249 90.4343 428.819 92.4499 426.281 93.247Z" fill="#181820"/>
<path fill-rule="evenodd" clip-rule="evenodd" d="M336.274 104.992C332.434 105.67 330.315 102.39 333.553 101.062C337.877 99.2753 341.599 104.058 336.274 104.992Z" fill="#181820"/>
<path fill-rule="evenodd" clip-rule="evenodd" d="M219.871 100.631C218.398 100.65 217.871 100.073 217.925 99.4313C218.054 97.9654 221.646 98.2219 221.367 99.7978C221.27 100.347 220.85 100.622 219.871 100.631Z" fill="#181820"/>
<path fill-rule="evenodd" clip-rule="evenodd" d="M131.865 81.7216C129.273 81.1444 129.542 78.515 132.059 78.7349C135.103 78.9914 135.468 82.537 131.865 81.7216Z" fill="#181820"/>
<path fill-rule="evenodd" clip-rule="evenodd" d="M49.2152 50.3882C44.9558 49.0781 46.9456 44.772 51.0007 46.8609C53.9586 48.3909 52.4313 51.3777 49.2152 50.3882Z" fill="#181820"/>
<path fill-rule="evenodd" clip-rule="evenodd" d="M361.336 101.126C356.195 102.116 355.528 97.1773 360.196 96.71C364.434 96.2886 365.595 100.311 361.336 101.126Z" fill="#181820"/>
<path fill-rule="evenodd" clip-rule="evenodd" d="M245.686 101.557C244.008 101.722 243.277 101.135 243.137 100.558C242.621 98.4875 247.924 98.4325 247.128 100.741C247.009 101.08 246.644 101.465 245.697 101.557H245.686Z" fill="#181820"/>
<path fill-rule="evenodd" clip-rule="evenodd" d="M157.347 86.0916C155.669 86.0091 155.066 85.3312 155.034 84.7448C154.937 82.6284 160.165 83.3431 158.917 85.5052C158.734 85.8167 158.293 86.1466 157.347 86.1007V86.0916Z" fill="#181820"/>
<path fill-rule="evenodd" clip-rule="evenodd" d="M271.135 101.566C267.672 101.96 267.327 98.7715 270.016 98.5333C271.339 98.4142 273.598 98.9364 272.92 100.622C272.791 100.943 272.157 101.438 271.135 101.557V101.566Z" fill="#181820"/>
<path fill-rule="evenodd" clip-rule="evenodd" d="M73.1907 58.3956C68.4903 57.2412 71.7064 52.926 75.2667 55.4821C76.7403 56.5357 76.3207 59.1652 73.1907 58.3956Z" fill="#181820"/>
<path fill-rule="evenodd" clip-rule="evenodd" d="M386.15 95.8124C381.697 96.8385 381.116 92.5599 384.848 91.9552C388.645 91.3322 390.011 94.9237 386.15 95.8124Z" fill="#181820"/>
<path fill-rule="evenodd" clip-rule="evenodd" d="M-4.83378 18.2212C-8.32951 16.6454 -7.52281 12.9623 -4.00557 13.7136C0.694843 14.7031 0.00646496 20.4109 -4.83378 18.2212Z" fill="#181820"/>
<path fill-rule="evenodd" clip-rule="evenodd" d="M295.971 100.531C292.055 100.796 292.421 97.0308 295.734 97.0491C298.886 97.0675 299.477 100.292 295.971 100.531Z" fill="#181820"/>
<path fill-rule="evenodd" clip-rule="evenodd" d="M182.279 89.1516C179.773 89.0692 180.472 86.8612 182.279 87.1452C183.946 87.4109 184.258 89.2158 182.279 89.1516Z" fill="#181820"/>
<path fill-rule="evenodd" clip-rule="evenodd" d="M97.4133 65.331C93.6487 64.6897 94.692 61.3731 97.381 61.9137C98.9084 62.216 100.898 63.462 99.457 64.9554C99.2203 65.2028 98.4029 65.4959 97.4026 65.331H97.4133Z" fill="#181820"/>
<path fill-rule="evenodd" clip-rule="evenodd" d="M410.566 89.3898C407.124 90.3976 406.081 87.081 409.254 86.4122C411.964 85.835 413.621 88.492 410.566 89.3898Z" fill="#181820"/>
<path fill-rule="evenodd" clip-rule="evenodd" d="M17.8506 28.7939C13.5696 27.218 15.8069 23.4342 19.0552 24.6986C22.5832 26.082 21.8303 30.2598 17.8506 28.7939Z" fill="#181820"/>
<path fill-rule="evenodd" clip-rule="evenodd" d="M321.302 98.3044C317.139 98.8449 316.752 94.7129 320.592 94.5022C324.012 94.3098 325.066 97.8096 321.302 98.3044Z" fill="#181820"/>
<path fill-rule="evenodd" clip-rule="evenodd" d="M207.47 91.2132C207.341 91.3872 206.739 91.1307 206.416 91.1399C205.007 90.2603 207.405 89.2251 208.18 90.3703C208.148 90.8467 207.986 91.1857 207.47 91.2132Z" fill="#181820"/>
<path fill-rule="evenodd" clip-rule="evenodd" d="M121.507 70.993C118.044 70.3609 119.732 67.4566 122.26 68.2445C124.497 68.9408 124.185 71.4786 121.507 70.993Z" fill="#181820"/>
<path fill-rule="evenodd" clip-rule="evenodd" d="M40.5137 38.1756C36.6308 36.7189 38.9003 33.0633 42.31 34.6391C45.3432 36.05 44.031 39.4857 40.5137 38.1756Z" fill="#181820"/>
<path fill-rule="evenodd" clip-rule="evenodd" d="M346.546 95.0153C342.115 96.0048 341.147 91.8545 344.556 91.1582C348.267 90.3978 350.666 94.09 346.546 95.0153Z" fill="#181820"/>
<path fill-rule="evenodd" clip-rule="evenodd" d="M232.166 92.5966C231.639 92.5966 230.95 92.3676 230.961 91.8637C230.983 90.7185 233.586 91.1765 233.295 92.1294C233.252 92.2668 232.983 92.6058 232.166 92.6058V92.5966Z" fill="#181820"/>
<path fill-rule="evenodd" clip-rule="evenodd" d="M145.816 75.7481C142.998 75.2992 144.073 72.7889 146.3 73.3019C148.29 73.76 148.376 76.1604 145.816 75.7481Z" fill="#181820"/>
<path fill-rule="evenodd" clip-rule="evenodd" d="M63.8329 46.4852C60.2081 45.2209 62.5422 42.0051 65.4679 43.2877C68.2537 44.5063 67.0705 47.6121 63.8329 46.4852Z" fill="#181820"/>
<path fill-rule="evenodd" clip-rule="evenodd" d="M371.263 90.7092C366.714 91.9369 365.466 87.6584 369.037 86.7697C370.887 86.3116 373.748 86.7147 373.468 88.8952C373.393 89.509 372.629 90.3428 371.263 90.7092Z" fill="#181820"/>
<path fill-rule="evenodd" clip-rule="evenodd" d="M257.314 93.1829C256.066 93.2379 255.453 92.6973 255.464 92.111C255.485 90.6359 258.981 90.7825 258.841 92.2667C258.787 92.8348 258.239 93.1371 257.314 93.1829Z" fill="#181820"/>
<path fill-rule="evenodd" clip-rule="evenodd" d="M170.641 79.3943C169.63 79.3576 168.974 78.8904 169.103 78.2674C169.587 75.867 174.223 79.5317 170.641 79.3943Z" fill="#181820"/>
<path fill-rule="evenodd" clip-rule="evenodd" d="M282.515 92.6516C280.902 92.9081 280.138 92.3676 279.955 91.8087C279.288 89.7748 284.451 89.4083 283.849 91.7537C283.763 92.0927 283.44 92.505 282.515 92.6516Z" fill="#181820"/>
<path fill-rule="evenodd" clip-rule="evenodd" d="M87.4858 53.8606C84.0869 52.9445 85.5927 49.7653 88.5399 50.8189C91.0568 51.7168 90.4975 54.676 87.4858 53.8606Z" fill="#181820"/>
<path fill-rule="evenodd" clip-rule="evenodd" d="M395.325 85.0105C393.357 85.5968 391.507 85.093 391.41 83.5629C391.292 81.4832 396.971 80.3471 397.175 83.1598C397.229 84.0119 396.853 84.5616 395.325 85.0197V85.0105Z" fill="#181820"/>
<path fill-rule="evenodd" clip-rule="evenodd" d="M10.3322 16.0773C6.33092 14.2083 9.38565 10.7818 12.5479 12.5317C15.7533 14.309 13.8064 17.6989 10.3322 16.0773Z" fill="#181820"/>
<path fill-rule="evenodd" clip-rule="evenodd" d="M307.318 91.1582C303.963 91.7537 303.382 88.6021 305.974 88.2081C307.265 88.0157 309.502 88.4005 308.986 90.1229C308.889 90.4619 308.308 90.9841 307.318 91.1674V91.1582Z" fill="#181820"/>
<path fill-rule="evenodd" clip-rule="evenodd" d="M195.272 81.8498C194.573 81.9415 194.089 81.6391 194.111 81.2085C194.197 79.7243 197.262 81.5841 195.272 81.8498Z" fill="#181820"/>
<path fill-rule="evenodd" clip-rule="evenodd" d="M111.526 60.1364C109.546 59.7974 108.933 58.469 110.052 57.6261C111.246 56.7282 114.505 57.9284 113.451 59.5959C113.182 60.0265 112.633 60.3288 111.526 60.1364Z" fill="#181820"/>
<path fill-rule="evenodd" clip-rule="evenodd" d="M418.967 78.2583C417.386 78.7805 416.343 78.3041 416.074 77.5345C415.418 75.6747 419.828 74.6852 420.376 76.5634C420.602 77.3421 420.064 77.8918 418.967 78.2583Z" fill="#181820"/>
<path fill-rule="evenodd" clip-rule="evenodd" d="M32.9521 25.9446C30.2308 24.9735 30.1233 22.2433 32.5541 22.0417C36.8135 21.6844 37.5234 27.5754 32.9521 25.9446Z" fill="#181820"/>
<path fill-rule="evenodd" clip-rule="evenodd" d="M331.434 88.5837C327.637 89.0784 327.691 85.2946 330.928 85.1205C333.994 84.9556 334.844 88.1439 331.434 88.5837Z" fill="#181820"/>
<path fill-rule="evenodd" clip-rule="evenodd" d="M135.361 65.2578C133.898 65.0471 133.468 64.3691 133.683 63.6911C134.167 62.1703 137.76 63.004 137.125 64.6073C136.878 65.2211 136.361 65.4044 135.372 65.267L135.361 65.2578Z" fill="#181820"/>
<path fill-rule="evenodd" clip-rule="evenodd" d="M55.6258 34.7032C54.9374 34.4833 54.0554 33.9611 53.7758 33.4389C53.1842 32.3761 54.5179 30.5438 56.8197 31.4783C57.9921 31.9547 59.3582 32.8983 58.261 34.2726C57.7663 34.8956 56.9596 35.1247 55.6258 34.694V34.7032Z" fill="#181820"/>
<path fill-rule="evenodd" clip-rule="evenodd" d="M355.968 84.9922C351.946 85.7618 351.225 81.6757 354.957 81.2451C358.281 80.8603 359.604 84.2959 355.968 84.9922Z" fill="#181820"/>
<path fill-rule="evenodd" clip-rule="evenodd" d="M159.444 69.2981C158.659 69.2248 158.056 68.8858 158.185 68.2812C158.454 67.0535 161.025 67.7589 160.67 68.8034C160.584 69.0599 160.369 69.3714 159.444 69.2981Z" fill="#181820"/>
<path fill-rule="evenodd" clip-rule="evenodd" d="M379.955 80.3288C375.663 81.3091 375.093 77.0305 378.707 76.4533C382.375 75.8761 383.687 79.4767 379.955 80.3288Z" fill="#181820"/>
<path fill-rule="evenodd" clip-rule="evenodd" d="M78.7194 42.4724C75.3635 41.7028 76.6543 38.6244 79.2142 39.3666C80.4189 39.7147 81.8925 40.7225 80.8384 42.0235C80.5157 42.4083 79.795 42.7198 78.7194 42.4724Z" fill="#181820"/>
<path fill-rule="evenodd" clip-rule="evenodd" d="M268.651 84.4425C268.145 84.4791 267.457 84.2867 267.425 83.7828C267.36 82.6376 269.92 82.9308 269.716 83.9019C269.683 84.0394 269.447 84.3875 268.651 84.4425Z" fill="#181820"/>
<path fill-rule="evenodd" clip-rule="evenodd" d="M4.03979 3.47068C-0.370206 1.66581 2.95343 -2.41118 6.45991 0.245736C8.63264 1.89486 6.98696 4.68004 4.03979 3.47068Z" fill="#181820"/>
<path fill-rule="evenodd" clip-rule="evenodd" d="M183.667 72.4314C183.075 72.4497 182.623 72.2298 182.666 71.79C182.828 70.2692 185.818 72.3581 183.667 72.4314Z" fill="#181820"/>
<path fill-rule="evenodd" clip-rule="evenodd" d="M293.303 83.6089C291.916 83.8013 291.324 83.2974 291.281 82.656C291.185 81.181 294.605 81.0161 294.583 82.6102C294.583 83.1691 294.218 83.4806 293.303 83.618V83.6089Z" fill="#181820"/>
<path fill-rule="evenodd" clip-rule="evenodd" d="M102.135 49.0506C100.543 48.8032 100.07 48.0703 100.145 47.4931C100.403 45.395 105.287 46.6136 103.738 48.62C103.512 48.904 103.039 49.188 102.135 49.0506Z" fill="#181820"/>
<path fill-rule="evenodd" clip-rule="evenodd" d="M403.758 74.1354C403.059 74.3461 402.015 74.4377 401.402 74.2087C400.154 73.7323 399.746 71.5976 402.198 71.0387C403.446 70.7456 405.177 70.7089 405.403 72.358C405.5 73.1093 405.07 73.7231 403.747 74.1354H403.758Z" fill="#181820"/>
<path fill-rule="evenodd" clip-rule="evenodd" d="M25.2832 13.4662C25.2832 13.4662 25.1971 13.5211 25.1218 13.4753C21.8089 11.7346 24.4979 8.66538 27.4128 10.287C30.1879 11.8354 25.2832 13.4662 25.2832 13.4662Z" fill="#181820"/>
<path fill-rule="evenodd" clip-rule="evenodd" d="M317.558 81.6848C315.633 82.0422 314.471 81.0344 315.084 79.8891C315.741 78.6615 319.215 78.6431 319.032 80.5396C318.989 81.0344 318.634 81.4924 317.558 81.694V81.6848Z" fill="#181820"/>
<path fill-rule="evenodd" clip-rule="evenodd" d="M125.283 54.63C123.906 54.4192 123.551 53.7688 123.766 53.1458C124.25 51.7348 127.531 52.5502 126.885 54.0436C126.66 54.575 126.197 54.7674 125.283 54.63Z" fill="#181820"/>
<path fill-rule="evenodd" clip-rule="evenodd" d="M426.84 66.9253C425.496 67.4475 424.689 67.081 424.431 66.4122C423.839 64.9097 427.357 63.9202 427.873 65.551C428.077 66.174 427.766 66.5771 426.84 66.9253Z" fill="#181820"/>
<path fill-rule="evenodd" clip-rule="evenodd" d="M48.0213 22.7471C44.5041 21.7485 46.0637 18.5877 48.5699 19.3756C49.9897 19.8245 51.6999 21.2446 50.0543 22.5731C49.7854 22.7929 48.9464 23.0037 48.0106 22.7471H48.0213Z" fill="#181820"/>
<path fill-rule="evenodd" clip-rule="evenodd" d="M341.738 78.5882C338.522 79.3761 337.683 76.2611 340.179 75.7114C341.415 75.4457 343.631 75.7114 343.266 77.4521C343.19 77.7911 342.674 78.3591 341.738 78.5882Z" fill="#181820"/>
<path fill-rule="evenodd" clip-rule="evenodd" d="M148.752 59.0919C148.257 59.0186 147.655 58.6887 147.763 58.2032C148.032 57.0763 150.398 57.8917 149.914 58.7895C149.849 58.9178 149.516 59.211 148.741 59.0919H148.752Z" fill="#181820"/>
<path fill-rule="evenodd" clip-rule="evenodd" d="M70.4264 30.846C69.7703 30.7086 69.383 30.562 69.0281 30.3147C67.3179 29.1328 69.383 26.595 71.943 28.354C72.911 29.0137 72.782 31.3408 70.4264 30.8369V30.846Z" fill="#181820"/>
<path fill-rule="evenodd" clip-rule="evenodd" d="M365.176 74.7128C361.508 75.4183 361.25 71.6436 364.39 71.2863C367.37 70.9473 368.467 74.0806 365.176 74.7128Z" fill="#181820"/>
<path fill-rule="evenodd" clip-rule="evenodd" d="M388.678 69.6646C384.741 70.6816 384.15 66.6595 387.538 66.1373C390.636 65.6517 391.948 68.8217 388.678 69.6646Z" fill="#181820"/>
<path fill-rule="evenodd" clip-rule="evenodd" d="M92.7343 37.7907C90.1098 37.0669 91.5619 34.7032 93.6056 35.427C95.4341 36.0683 95.1222 38.4504 92.7343 37.7907Z" fill="#181820"/>
<path fill-rule="evenodd" clip-rule="evenodd" d="M18.948 1.13451C14.7101 -0.532937 18.6576 -4.37172 21.5295 -1.4766C22.7127 -0.276406 21.7769 2.24308 18.948 1.13451Z" fill="#181820"/>
<path fill-rule="evenodd" clip-rule="evenodd" d="M303.522 74.3005C302.941 74.3647 302.521 74.1723 302.403 74.0532C301.22 72.9446 304.812 71.946 304.64 73.6226C304.619 73.8883 304.296 74.2181 303.522 74.3097V74.3005Z" fill="#181820"/>
<path fill-rule="evenodd" clip-rule="evenodd" d="M411.943 63.0956C408.92 64.2774 407.554 61.2907 409.921 60.4478C411.093 60.0264 413.32 60.0172 413.255 61.7854C413.255 62.1244 412.836 62.7474 411.932 63.0956H411.943Z" fill="#181820"/>
<path fill-rule="evenodd" clip-rule="evenodd" d="M115.677 43.7276C114.537 43.4986 114.236 42.9123 114.429 42.3809C114.914 41.0891 117.732 41.9411 117.28 43.1779C117.054 43.8009 116.527 43.9017 115.677 43.7276Z" fill="#181820"/>
<path fill-rule="evenodd" clip-rule="evenodd" d="M40.3312 10.571C37.2119 9.34336 39.191 6.35662 41.8585 7.67592C44.1388 8.80282 43.1062 11.6521 40.3312 10.571Z" fill="#181820"/>
<path fill-rule="evenodd" clip-rule="evenodd" d="M327.465 71.9458C326.131 72.2206 325.518 71.7534 325.421 71.1121C325.206 69.6553 328.53 69.2797 328.637 70.8739C328.68 71.4327 328.347 71.7717 327.476 71.9549L327.465 71.9458Z" fill="#181820"/>
<path fill-rule="evenodd" clip-rule="evenodd" d="M138.975 48.7208C138.642 48.7208 138.394 48.675 138.244 48.5925C136.673 47.7771 139.836 46.5769 139.9 48.0886C139.922 48.7574 139.534 48.7208 138.986 48.7208H138.975Z" fill="#181820"/>
<path fill-rule="evenodd" clip-rule="evenodd" d="M62.2086 18.9816C60.692 18.4868 60.3478 17.5523 60.7565 16.8377C61.7568 15.097 65.6075 16.8194 64.4996 18.5235C64.0479 19.2289 63.2519 19.3297 62.1978 18.9907L62.2086 18.9816Z" fill="#181820"/>
<path fill-rule="evenodd" clip-rule="evenodd" d="M351.053 68.5376C349.203 69.0048 347.987 68.0703 348.482 66.8884C349.02 65.6333 352.408 65.4134 352.386 67.3099C352.386 67.8046 352.075 68.281 351.053 68.5467V68.5376Z" fill="#181820"/>
<path fill-rule="evenodd" clip-rule="evenodd" d="M84.4527 26.4302C83.0866 26.0912 82.7747 25.3674 83.0974 24.7261C83.818 23.2693 87.1201 24.4421 86.2381 25.9629C85.9047 26.5401 85.3777 26.6775 84.4419 26.4393L84.4527 26.4302Z" fill="#181820"/>
<path fill-rule="evenodd" clip-rule="evenodd" d="M374.254 64.1583C371.178 65.1295 370.113 62.0694 372.501 61.3823C373.684 61.0433 375.856 61.1808 375.663 62.9398C375.62 63.2788 375.168 63.8743 374.265 64.1583H374.254Z" fill="#181820"/>
<path fill-rule="evenodd" clip-rule="evenodd" d="M397.024 58.8536C396.357 59.0551 395.357 59.1376 394.766 58.8994C393.55 58.4047 393.163 56.2791 395.518 55.7386C396.712 55.4637 398.39 55.4454 398.616 57.1037C398.713 57.8549 398.294 58.4596 397.024 58.8627V58.8536Z" fill="#181820"/>
<path fill-rule="evenodd" clip-rule="evenodd" d="M106.803 32.8342C104.114 32.2844 107.029 29.7833 108.191 31.6798C108.654 32.4402 107.836 33.0449 106.803 32.8342Z" fill="#181820"/>
<path fill-rule="evenodd" clip-rule="evenodd" d="M419.29 52.0281C417.547 52.7244 416.181 51.9365 416.472 50.7088C416.784 49.3987 420.086 48.7665 420.387 50.6355C420.473 51.1211 420.247 51.6342 419.279 52.0281H419.29Z" fill="#181820"/>
<path fill-rule="evenodd" clip-rule="evenodd" d="M129.402 38.0839C128.832 38.0472 128.434 37.7815 128.553 37.3509C128.951 35.8667 131.468 38.2121 129.402 38.0839Z" fill="#181820"/>
<path fill-rule="evenodd" clip-rule="evenodd" d="M54.9809 7.21794C53.1846 6.65907 52.8727 5.2848 54.0989 4.59767C55.4111 3.85556 58.2615 5.39474 56.917 6.9156C56.562 7.30955 55.992 7.5386 54.9917 7.2271L54.9809 7.21794Z" fill="#181820"/>
<path fill-rule="evenodd" clip-rule="evenodd" d="M336.78 62.0604C336.22 62.1612 335.801 61.9871 335.661 61.8771C334.413 60.8419 337.834 59.6325 337.802 61.3183C337.802 61.584 337.511 61.9321 336.769 62.0695L336.78 62.0604Z" fill="#181820"/>
<path fill-rule="evenodd" clip-rule="evenodd" d="M76.6007 14.9046C75.3099 14.5656 75.0841 13.8968 75.396 13.3013C76.0951 11.9636 79.1068 13.0814 78.2356 14.4923C77.9344 14.987 77.4504 15.1336 76.6007 14.9046Z" fill="#181820"/>
<path fill-rule="evenodd" clip-rule="evenodd" d="M359.787 58.359C358.507 58.7163 357.872 58.2765 357.722 57.6352C357.388 56.1877 360.593 55.6379 360.83 57.2138C360.916 57.7726 360.626 58.1208 359.776 58.359H359.787Z" fill="#181820"/>
<path fill-rule="evenodd" clip-rule="evenodd" d="M382.504 53.6132C380.74 54.1904 379.471 53.3108 379.858 52.1106C380.267 50.8188 383.558 50.4157 383.698 52.3122C383.741 52.7978 383.472 53.2925 382.493 53.6132H382.504Z" fill="#181820"/>
<path fill-rule="evenodd" clip-rule="evenodd" d="M98.2954 21.6477C97.7576 21.5011 97.4887 21.1713 97.4349 21.0247C96.9509 19.6046 100.619 19.9802 99.6076 21.4278C99.4462 21.666 99.0052 21.8492 98.2846 21.6568L98.2954 21.6477Z" fill="#181820"/>
<path fill-rule="evenodd" clip-rule="evenodd" d="M404.296 48.0426C401.972 48.6473 400.671 46.2836 402.725 45.3857C405.199 44.3138 407.533 47.2089 404.296 48.0426Z" fill="#181820"/>
<path fill-rule="evenodd" clip-rule="evenodd" d="M121.002 26.7874C121.163 27.3737 120.324 27.6028 119.808 27.108C119.647 26.5217 120.485 26.3018 121.002 26.7874Z" fill="#181820"/>
<path fill-rule="evenodd" clip-rule="evenodd" d="M426.496 40.7866C423.108 42.509 423.581 37.7632 426.485 38.8535C427.453 39.22 427.518 40.2736 426.496 40.7866Z" fill="#181820"/>
<path fill-rule="evenodd" clip-rule="evenodd" d="M69.2539 3.3699C67.0811 2.78355 68.4687 0.832087 69.9638 1.46425C71.3405 2.05977 70.9748 3.82799 69.2539 3.3699Z" fill="#181820"/>
<path fill-rule="evenodd" clip-rule="evenodd" d="M90.8199 10.452C90.6371 10.5894 90.2068 10.2229 89.9271 10.1679C88.9914 9.04104 91.4653 8.54631 91.7342 9.80147C91.5406 10.2504 91.2824 10.5344 90.8199 10.452Z" fill="#181820"/>
<path fill-rule="evenodd" clip-rule="evenodd" d="M368.037 47.9603C367.51 48.0886 367.079 47.942 366.94 47.8412C365.638 46.8793 368.865 45.4775 368.973 47.1541C368.983 47.429 368.736 47.7863 368.026 47.9603H368.037Z" fill="#181820"/>
<path fill-rule="evenodd" clip-rule="evenodd" d="M390.13 42.8847C388.915 43.3062 388.258 42.9122 388.054 42.2801C387.613 40.8783 390.679 40.0996 391.055 41.6846C391.184 42.2159 390.947 42.6007 390.13 42.8756V42.8847Z" fill="#181820"/>
<path fill-rule="evenodd" clip-rule="evenodd" d="M411.997 36.8654C410.663 37.4701 409.824 37.1128 409.48 36.6089C408.243 34.7948 412.642 33.3198 412.868 35.711C412.901 36.0592 412.75 36.5264 411.986 36.8654H411.997Z" fill="#181820"/>
<path fill-rule="evenodd" clip-rule="evenodd" d="M397.283 32.0646C396.777 32.2295 396.347 32.1013 396.196 32.0097C394.841 31.1301 397.874 29.5543 398.122 31.2126C398.165 31.4783 397.949 31.8539 397.272 32.0646H397.283Z" fill="#181820"/>
<path fill-rule="evenodd" clip-rule="evenodd" d="M418.515 25.7522C416.557 26.6226 415.923 24.4054 417.461 23.9748C418.881 23.5809 420.064 25.0651 418.515 25.7522Z" fill="#181820"/>
<path fill-rule="evenodd" clip-rule="evenodd" d="M424.732 14.4373C424.711 14.6389 424.13 14.6205 423.882 14.7396C422.366 14.4464 423.678 12.6691 424.84 13.4295C425.055 13.8693 425.098 14.2357 424.721 14.4373H424.732Z" fill="#181820"/>
<path fill-rule="evenodd" clip-rule="evenodd" d="M429.637 3.3791C429.884 3.16838 430.132 2.96682 430.465 2.79275C430.626 3.1867 430.099 3.41575 429.637 3.3791Z" fill="#181820"/>
<path fill-rule="evenodd" clip-rule="evenodd" d="M403.736 21.2079C403.865 20.9331 404.457 20.8598 404.608 20.5941C404.887 20.7498 404.242 21.4003 403.736 21.2079Z" fill="#181820"/>
</g>
</g>
<defs>
<clipPath id="clip0_851_5443">
<rect width="1128" height="496" fill="white" transform="translate(-369)"/>
</clipPath>
</defs>
</svg>
