<svg width="344" height="344" viewBox="0 0 344 344" fill="none" xmlns="http://www.w3.org/2000/svg">
<g clip-path="url(#clip0_851_6681)">
<path d="M97.199 5.42707C97.456 3.62342 96.8255 1.40187 98.2717 0C97.886 24.1512 95.9178 48.3226 95.2348 72.4859C95.773 74.9403 99.4085 75.7116 99.2436 78.5036C100.754 109.095 101.77 139.734 103.007 170.321C99.0709 174.651 94.5636 178.491 90.4501 182.669C89.8958 183.207 89.8074 183.999 89.759 184.73C89.277 196.524 88.682 208.315 88.1721 220.109C93.535 222.158 97.3149 227.019 99.388 232.221C101.199 232.153 103.007 232.1 104.819 232.08C104.783 232.317 104.715 232.792 104.679 233.032C98.7494 233.305 92.808 233.294 86.879 233.583C86.8952 234.644 86.9069 235.704 86.9113 236.768C92.768 236.885 98.6133 236.291 104.47 236.419C104.354 236.628 104.116 237.046 103.996 237.255C98.6694 237.383 93.3425 237.704 88.0118 237.752C87.3289 237.596 87.1162 238.279 86.8347 238.737C92.551 239.006 98.2636 238.243 103.984 238.532C103.522 239.408 102.482 239.351 101.637 239.396C96.9098 239.46 92.1895 239.745 87.4616 239.789C87.3168 241.641 85.5736 241.617 84.1193 241.621C84.039 241.059 83.9584 240.496 83.8862 239.938C82.5723 239.986 81.2628 240.022 79.9534 240.042C79.2785 237.648 78.4269 235.31 77.8403 232.896C79.8731 232.763 81.9135 232.715 83.9507 232.635C83.6611 228.573 81.9099 224.472 83.6013 220.466C84.505 209.604 84.6417 198.665 85.1839 187.775C78.6281 193.949 72.1203 200.179 65.7049 206.499C64.0618 207.997 64.4717 210.448 64.0138 212.428C63.5798 216.533 62.3865 220.535 62.0009 224.632C64.556 240.641 67.7817 256.565 70.236 272.589C67.3762 256.951 64.8049 241.252 61.8443 225.637C59.4864 233.527 57.6864 241.927 52.384 248.482C54.8864 264.724 58.4903 280.841 61.0048 297.098C57.9196 280.797 55.1316 264.435 51.8938 248.161C40.1511 244.859 27.4971 244.369 16.522 238.633C22.7009 207.459 29.3571 176.374 35.8128 145.257C43.6301 109.154 50.1137 72.7627 58.1725 36.7207C69.1674 47.3742 80.0175 58.1763 90.8518 68.9948C91.9322 46.615 92.9004 24.2154 94.0093 1.83959C94.0936 1.28127 94.5317 0.867391 94.8129 0.401109C95.2305 2.72714 94.8851 5.08912 94.8088 7.43127C91.6635 78.3709 87.9638 149.278 84.8584 220.218C85.6058 220.415 86.357 220.62 87.1038 220.824C90.3536 149.021 93.9048 77.23 97.199 5.42707Z" fill="#102528"/>
<path d="M249.543 6.68482C249.788 6.71673 250.283 6.77317 250.527 6.80508C250.7 30.9445 250.507 55.0917 250.652 79.2309C254.074 79.5161 258.308 80.5363 259.602 84.1597C257.196 81.7175 254.122 79.9498 250.599 79.9619C250.559 82.0148 250.583 84.0717 250.695 86.1203C253.737 86.1962 256.701 85.5055 259.513 84.3966C258.887 87.0401 256.886 88.9724 254.942 90.7199C258.256 92.0375 261.984 93.4474 263.98 96.5851C265.017 99.6942 261.723 101.956 259.783 103.856C260.964 105.097 262.241 106.303 262.956 107.893C261.55 106.885 260.394 105.592 259.248 104.31C257.26 107.262 255.375 110.388 252.608 112.686C253.456 116.08 254.737 119.37 256.553 122.367C257.545 119.543 258.742 116.638 261.068 114.638C263.792 111.914 268.697 112.296 271.38 114.851C272.883 116.401 271.569 118.615 270.143 119.679C266.375 122.588 261.578 123.91 256.874 124.142C255.56 131.639 255.408 139.263 255.023 146.847C255.086 149.471 256.127 151.929 256.73 154.456C257.385 156.637 257.605 159.393 259.983 160.434C266.247 164.097 270.485 170.505 272.003 177.539C276.506 166.636 281.359 155.882 286.429 145.233C287.184 143.827 286.782 142.224 286.494 140.753C283.705 126.042 281.625 110.993 283.05 96.0133C283.955 101.373 282.786 106.94 283.328 112.379C284.256 109.68 284.694 106.39 287.221 104.647C289.153 103.361 291.852 104.891 291.945 107.154C291.9 111.372 288.116 115.786 283.601 114.919C284.412 124.278 285.694 133.627 287.734 142.802C288.791 140.821 289.538 138.351 291.374 137.001C295.319 137.109 299.147 138.383 302.908 139.508C304.916 129.911 308.005 119.261 316.421 113.332C321.33 109.539 330.542 116.16 326.464 121.764C326.283 122.057 326.098 122.346 325.91 122.631C320.756 129.207 313.051 133.188 305.362 136.048C303.679 136.474 303.843 138.439 303.595 139.792C306.752 141.009 310.042 142.154 312.761 144.223C313.89 144.938 313.621 146.637 312.38 147.056C309.347 148.413 305.908 148.003 302.674 148.188C301.341 155.427 300.481 162.815 298.187 169.837C295.046 177.028 290.096 183.266 284.866 189.051C283.098 190.847 283.062 193.49 283.038 195.844C283.046 201.87 283.074 207.904 283.544 213.914C283.616 215.601 284.778 216.906 285.794 218.152C290.117 223.434 294.118 228.982 298.572 234.152C303.67 218.413 305.012 201.726 308.334 185.613C308.406 189.136 307.611 192.59 307.145 196.065C305.108 208.86 303.148 221.735 299.464 234.176C299.419 236.305 301.002 238.081 301.649 240.061C302.593 233.008 304.453 225.471 309.74 220.357C313.158 216.906 319.132 216.275 322.876 219.569C322.831 220.618 322.667 221.663 322.47 222.695C317.882 229.508 309.961 232.818 302.951 236.526C301.235 246.244 303.172 256.138 304.658 265.763C305.976 260.023 308.94 252.916 315.371 251.667C318.497 250.956 320.012 254.736 318.248 256.978C315.263 262.108 310.407 265.952 305.172 268.619C306.513 277.562 309.76 286.05 312.998 294.418C307.944 286.6 306.341 277.048 304.095 268.141C301.476 264.313 298.588 260.645 295.981 256.793C295.764 256.479 295.556 256.162 295.354 255.848C288.059 244.367 281.185 232.561 275.898 220.003C273.878 215.183 273.89 209.848 273.834 204.709C273.793 203.705 273.814 202.339 272.604 202.05C266.571 199.527 260.778 196.382 254.551 194.365C253.242 193.751 250.53 194.08 251.261 196.064C253.551 203.44 256.387 210.639 259.231 217.813C259.793 219.059 260.54 220.955 262.248 220.649C266.454 219.798 269.756 216.786 273.636 215.126C270.736 217.809 267.116 219.686 263.46 221.115C261.814 221.883 259.918 221.079 259.235 219.424C255.824 212.005 253.325 204.203 250.437 196.57C250.795 202.58 250.373 208.634 250.779 214.624C252.759 218.484 253.57 222.787 253.655 227.109C255.101 227.041 256.547 226.961 257.998 226.868C257.704 229.138 257.174 231.368 256.7 233.609C255.009 233.685 253.314 233.71 251.619 233.682C251.53 234.208 251.442 234.734 251.357 235.268C250.012 235.408 248.208 235.819 248.015 233.951C215.701 235.075 183.379 236.445 151.068 237.791C156.443 254.559 158.653 272.126 162.352 289.303C158.476 290.866 154.378 291.742 150.301 292.594C140.792 270.844 129.628 249.874 119.826 228.258C118.119 224.566 115.757 220.714 116.649 216.463C117.163 210.494 122.028 205.476 127.78 204.219C130.717 204.608 131.854 207.802 133.449 209.891C132.826 207.546 131.263 205.654 129.668 203.893C145.621 201.073 161.935 200.547 178.104 200.045C179.867 209.052 178.345 219.067 173.078 226.691C172.283 227.599 171.564 228.913 170.255 229.073C162.035 228.957 153.872 227.627 145.673 227.234C148.903 228.209 152.321 228.129 155.644 228.583C170.817 229.869 186.062 230.937 201.295 230.315C205.063 230.005 209.225 229.833 212.298 227.346C214.74 225.494 215.906 222.409 216.199 219.444C215.299 221.798 214.64 224.393 212.708 226.157C209.587 229.238 204.903 229.551 200.765 229.804C194.747 229.913 188.709 230.122 182.699 229.704C190.147 223.004 193.478 212.458 193.196 202.628C193.401 200.933 191.887 199.716 190.38 199.399C172.697 199.451 154.977 200.098 137.365 201.857C132.091 202.556 126.402 202.889 121.932 206.107C117.059 209.421 114.769 215.869 116.098 221.553C117.693 226.719 120.939 231.247 122.482 236.417C118.774 247.484 114.849 258.599 112.596 270.101C118.806 273.234 120.092 281.71 117.525 287.652C115.428 291.127 118.449 295.413 116.753 298.94C110.559 302.17 103.706 304.018 96.9325 305.625C89.9712 307.127 82.7801 306.288 75.8262 305.195C73.4363 304.64 69.6157 304.52 70.0699 301.109C63.4496 301.008 56.8249 301.206 50.2046 301.057C50.2288 300.804 50.2808 300.294 50.3054 300.037C56.885 300.041 63.4694 300.081 70.0538 300.005C70.0615 296.98 69.6718 293.196 72.4759 291.191C76.5051 287.812 82.334 289.552 86.5564 286.659C84.8451 281.489 89.0991 276.696 93.6705 274.941C87.5608 275.624 82.1617 279.127 76.0835 279.83C76.5414 279.356 77.0117 278.85 77.6745 278.685C83.7402 276.797 89.6416 274.094 96.0691 273.68C96.2939 271.704 97.7925 270.386 99.5037 269.598C103.645 246.186 106.574 222.557 111.535 199.294C112.981 193.252 114.315 187.013 117.565 181.638C120.264 177.05 124.924 173.748 130.187 172.864C127.881 167.642 128.724 161.712 130.601 156.506C132.669 150.754 134.863 145.005 137.864 139.662C135.264 139.791 132.264 139.397 130.802 136.951C132.987 138.554 136.1 139.976 138.683 138.501C139.937 136.384 139.607 133.492 141.536 131.688C142.648 130.125 145.376 129.671 145.251 127.402C145.946 114.494 140.66 102.375 135.55 90.8335C133.501 86.3097 131.713 81.5213 131.633 76.496C131.433 74.644 133.308 73.6395 134.285 72.3465C133.401 72.8803 132.561 73.4793 131.713 74.0655C132.513 67.4371 135.944 61.1463 141.359 57.1772C145.661 51.7498 153.254 52.67 159.167 50.4887C168.439 48.4277 178.128 52.9149 184.483 59.5715C189.762 65.1877 191.939 72.8121 193.606 80.1433C195.065 87.0286 197.439 93.7256 200.761 99.936C205.095 108.589 211.23 116.451 213.745 125.932C214.785 129.945 215.794 134.018 216.051 138.168C213.801 131.346 213.275 123.903 209.679 117.516C204.79 108.405 198.696 99.8521 195.426 89.9537C193.522 84.9401 192.899 79.5772 191.288 74.4834C192.526 80.7382 193.549 87.1096 196.008 93.0349C199.56 102.331 205.574 110.365 210.025 119.207C213.323 125.719 213.612 133.163 216.203 139.9C222.422 161.621 226.555 184.069 227.034 206.697C223.599 208.272 219.899 209.088 216.211 209.831C217.589 216.206 217.814 224.766 211.688 228.796C220.77 228.121 229.894 228.161 238.98 227.587C239.318 222.697 241.78 217.76 246.119 215.266C246.227 197.502 246.067 179.737 246.187 161.978C242.72 161.869 238.944 162.307 235.815 160.491C233.292 159.094 233.208 154.57 236.132 153.594C239.39 152.69 242.825 153.297 246.155 153.237C246.139 151.791 246.143 150.348 246.171 148.906C239.98 151.092 231.553 152.71 226.615 147.195C222.875 143.447 225.394 135.886 230.99 136.083C237.835 136.662 242.086 142.993 246.191 147.79C246.123 143.403 246.191 139.02 246.139 134.633C244.251 133.97 241.736 132.773 241.853 130.419C242.27 128.366 244.693 128.269 246.264 128.969C245.661 124.092 247.412 118.705 244.661 114.286C243.283 111.775 242.299 108.558 239.338 107.493C231.765 104.159 223.932 101.435 216.178 98.5627C213.608 97.6184 213.443 101.628 214.391 103.154C217.492 109.289 223.831 112.872 229.491 116.315C233.749 116.062 236.77 112.27 240.302 110.204C236.943 113.093 232.938 117.403 228.113 116.335C222.521 112.864 216.126 109.245 213.499 102.865C212.49 100.832 213.451 96.6623 216.419 97.9036C224.843 100.997 233.468 103.745 241.498 107.798C239.932 97.3053 234.862 87.7203 229.359 78.7978C225.803 81.0113 220.702 82.0359 217.355 78.9023C215.592 77.1991 217.178 74.5197 219.183 73.9214C223.088 72.2985 227.089 75.1025 229.487 78.0265C234.332 84.4903 237.449 92.0183 240.458 99.4583C242.254 94.686 241.872 89.6322 240.856 84.7392C240.085 75.9094 239.848 65.7698 246.03 58.6601C246.307 41.7154 246.018 24.7146 246.207 7.74604C246.448 7.74604 246.934 7.74201 247.175 7.74201C247.287 76.8255 247.207 145.913 247.255 214.997C247.998 215.273 248.746 215.555 249.497 215.836C249.634 146.122 249.517 76.3992 249.541 6.68112L249.543 6.68482Z" fill="#102528"/>
<path d="M58.6624 38.5848C66.4518 45.9764 73.9516 53.6734 81.6969 61.1131C82.7095 61.8804 82.3077 63.2379 82.2234 64.3149C81.4198 69.8827 80.7929 75.4788 79.9175 81.0385C72.5218 68.7822 65.4073 56.3448 58.3573 43.8835C57.2726 42.2284 58.3127 40.3001 58.6624 38.5848Z" fill="#FEFEFE"/>
<path d="M123.15 39.3403C128.682 39.3766 134.254 39.0104 139.761 39.565C138.873 40.6377 137.415 40.3484 136.19 40.3884C131.783 40.2678 127.372 40.4086 122.965 40.2678C123.01 40.035 123.102 39.5731 123.15 39.3403Z" fill="#102528"/>
<path d="M57.5013 44.2453C64.6718 56.7627 71.8666 69.2764 79.1941 81.7057C80.0736 82.9265 78.8044 84.188 78.2461 85.2566C70.5773 96.8824 63.3862 108.838 55.7819 120.487C57.8187 114.803 61.3619 109.071 60.0843 102.788C59.747 100.864 58.2084 98.128 55.8787 98.9958C52.8616 100.369 51.3432 103.688 48.3503 105.142C47.8602 99.9115 46.7113 94.5204 48.1777 89.3466C51.315 74.3181 54.1553 59.2258 57.5016 44.2457L57.5013 44.2453Z" fill="#FEFEFE"/>
<path d="M107.198 48.3945C108.484 47.6037 109.841 46.9325 111.215 46.3056C110.617 47.1136 109.99 47.9047 109.379 48.7083C111.798 48.5796 114.232 48.0293 116.643 48.5437C113.939 48.8608 111.22 49.0338 108.512 49.3109C108.753 48.8651 109.002 48.423 109.251 47.9813C108.564 48.1257 107.881 48.2705 107.198 48.3945Z" fill="#102528"/>
<path d="M121.274 48.8248C123.255 49.275 125.03 50.3795 126.311 51.9585C123.154 54.8388 118.237 53.3684 116.12 49.9821C118.695 52.2638 122.362 54.1918 125.629 51.9628C124.371 50.6574 122.756 49.8253 121.274 48.8248Z" fill="#102528"/>
<path d="M154.279 52.9545C159.204 50.3191 165.077 49.8132 170.389 51.5406C164.941 50.4316 159.45 51.1146 154.279 52.9545Z" fill="#FEFEFE"/>
<path d="M241.403 82.9588C240.886 75.0249 240.894 66.0907 246.161 59.5869C246.112 66.3843 246.216 73.189 246.104 79.982C244.601 81.0711 242.806 81.7097 241.403 82.9588Z" fill="#FEFEFE"/>
<path d="M135.788 72.5504C140.223 68.6576 144.666 64.757 148.591 60.3384C148.615 65.5045 153.195 68.975 157.489 70.8872C161.237 72.4419 165.082 74.2899 167.383 77.8008C168.693 75.1213 172.71 72.4738 175.145 75.3303C178.218 79.5967 176.177 86.7354 171.445 88.9368C170.059 89.7198 169.364 88.3862 168.777 87.3619C168.536 90.3867 168.753 93.7491 166.821 96.3082C164.334 100.012 160.642 102.571 157.373 105.499C162.021 104.005 165.765 100.309 168.296 96.2236C169.264 102.161 171.509 107.817 174.39 113.072C174.731 113.674 175.884 115.068 175.739 113.574C172.879 107.721 170.131 101.611 169.477 95.0424C170.309 94.7854 171.144 94.5362 171.98 94.2832C174.695 100.88 177.688 107.58 182.737 112.754C183.742 113.743 181.946 114.325 181.299 114.799C175.447 117.92 170.682 123.593 170.204 130.41C169.111 127.204 167.481 124.235 165.556 121.46C162.459 116.406 160.776 110.473 157.016 105.845C153.356 107.191 149.073 109.702 145.293 107.203C139.059 102.892 138.81 94.4078 138.754 87.5591C140.895 87.4627 142.325 85.7712 142.365 83.6743C141.112 84.1762 139.895 84.7627 138.669 85.3251C138.115 83.8188 137.464 82.3524 136.685 80.9546C138.396 79.8174 141.534 78.4155 139.762 75.937C138.601 76.9371 137.516 78.0178 136.399 79.0622C136.106 76.9008 135.937 74.7276 135.789 72.5504H135.788Z" fill="#FEFEFE"/>
<path d="M165.053 63.335C164.238 61.5629 167.182 59.2614 168.303 61.2777C170.509 64.9095 172.747 68.6898 173.671 72.8833C172.505 73.1527 171.349 73.4262 170.183 73.6791C168.761 70.0873 166.524 66.8895 165.053 63.335Z" fill="#FCB900"/>
<path d="M134.856 66.5768C136.098 64.5 137.837 62.7165 139.922 61.4873C138.352 63.295 136.636 64.9784 134.856 66.5768Z" fill="#FEFEFE"/>
<path d="M83.3596 62.8445C85.77 65.2065 88.1723 67.5809 90.4902 70.0353C87.3287 73.7071 84.2919 77.4911 81.042 81.0906C81.725 74.9967 82.6364 68.9307 83.3596 62.8445Z" fill="#FEFEFE"/>
<path d="M82.2549 81.2512C85.2598 77.9973 87.855 74.39 90.8599 71.1321C90.7837 75.9686 90.3375 80.7936 90.2294 85.6342C86.8307 87.5547 83.2553 89.1293 79.8247 90.9853C80.4838 87.7395 79.5593 83.7264 82.2549 81.2512Z" fill="#FEFEFE"/>
<path d="M145.735 74.1488C148.647 74.4582 152.018 74.0201 154.492 75.8483C151.644 75.4103 146.924 77.8848 145.735 74.1488Z" fill="#102528"/>
<path d="M219.969 74.3581C223.448 73.3496 226.545 75.9249 228.826 78.2267C225.62 80.3636 220.961 81.1753 217.855 78.4397C216.389 76.8329 218.241 74.6876 219.968 74.3584L219.969 74.3581Z" fill="#FEFEFE"/>
<path d="M94.9613 74.4827C97.7295 76.0415 98.9546 78.9218 98.3762 82.0349C97.063 82.7102 95.7693 83.421 94.4756 84.1362C94.7208 80.9226 94.793 77.7007 94.9617 74.4831L94.9613 74.4827Z" fill="#FEFEFE"/>
<path d="M184.067 75.6874C188.297 85.8831 186.654 97.2075 185.079 107.789C184.641 109.761 184.89 111.967 183.77 113.73C185.28 101.156 188.265 88.0962 184.067 75.6874Z" fill="#FEFEFE"/>
<path d="M170.039 81.8905C168.633 79.5124 171.557 75.1657 174.233 77.0977C171.373 76.8366 170.179 79.4801 170.039 81.8905Z" fill="#102528"/>
<path d="M171.14 78.6967C173.619 80.0704 173.233 84.192 171.244 85.9157C172.369 83.5735 172.445 80.9868 171.14 78.6967Z" fill="#102528"/>
<path d="M147.466 81.3758C149.817 80.7937 152.183 80.2995 154.545 79.769C153.914 82.9668 149.374 83.9951 147.466 81.3758Z" fill="#102528"/>
<path d="M241.878 83.4529C243.003 82.1394 244.65 81.4806 246.192 80.8017C246.208 82.3964 246.197 83.9914 246.172 85.5861C244.77 85.0197 242.425 85.0359 241.878 83.4529Z" fill="#FEFEFE"/>
<path d="M153.283 86.4656C154.785 84.7422 156.404 83.115 158.192 81.6852C157.224 82.8103 156.195 83.8789 155.267 85.0359C155.874 85.0476 156.481 85.056 157.091 85.0637C156.473 85.4857 155.854 85.9076 155.243 86.3416C155.179 86.1606 155.051 85.7951 154.982 85.6143C154.416 85.8992 153.85 86.1848 153.283 86.4659V86.4656Z" fill="#102528"/>
<path d="M152.697 85.8068C153.332 84.4772 154.291 83.3525 155.059 82.1031C154.85 83.6457 153.938 84.9149 152.697 85.8068Z" fill="#102528"/>
<path d="M94.5079 85.1118C95.7895 84.3643 97.0751 83.6256 98.3883 82.9305C98.8384 89.3463 99.1519 95.7859 99.2923 102.209C97.8303 104.716 95.3998 106.564 93.5195 108.785C93.6559 100.887 94.2388 93.0056 94.5079 85.1118Z" fill="#FEFEFE"/>
<path d="M241.504 84.6099C243.003 85.2885 244.533 85.9073 246.104 86.4015C246.245 92.7366 246.048 99.0717 246.221 105.402C244.995 106.331 243.722 107.198 242.381 107.945C241.894 106.029 241.412 104.105 241.131 102.149C240.573 98.722 242.754 95.6125 242.582 92.2021C242.445 89.6473 241.854 87.1405 241.505 84.6096L241.504 84.6099Z" fill="#FEFEFE"/>
<path d="M64.9977 107.958C69.6656 100.181 74.7477 92.6526 79.5401 84.9515C77.8007 99.59 76.2258 114.249 74.1897 128.847C72.044 122.36 65.8702 118.242 64.1626 111.557C66.2636 112.457 68.8345 113.124 70.8471 111.613C72.7149 110.629 73.9925 107.68 72.0041 106.178C69.5578 105.186 67.1474 106.961 64.9981 107.958L64.9977 107.958Z" fill="#FEFEFE"/>
<path d="M250.631 86.8717C253.387 86.7874 256.147 86.4579 258.726 85.4336C256.906 88.6636 253.753 90.7444 250.652 92.6045C250.579 90.6924 250.587 88.7839 250.631 86.8721V86.8717Z" fill="#FEFEFE"/>
<path d="M79.6758 91.9333C83.1548 90.2943 86.5296 88.4423 90.0244 86.8472C89.8191 94.9259 89.1446 102.984 88.9598 111.063C88.8594 112.204 89.0482 113.57 88.1122 114.425C83.7336 118.868 79.564 123.521 75.2173 127.995C76.9769 116.012 78.2861 103.964 79.6758 91.9333Z" fill="#FEFEFE"/>
<path d="M142.77 93.4316C140.746 93.9661 138.601 91.9129 139.846 89.9651C139.705 91.8531 141.316 92.7087 142.77 93.4316Z" fill="#102528"/>
<path d="M250.664 93.4598C251.889 92.753 253.11 92.0378 254.316 91.2944C256.697 92.0136 259.052 92.9378 261.008 94.5164C257.698 97.2761 254.079 99.6303 250.652 102.246C250.568 99.3169 250.568 96.3882 250.664 93.4598Z" fill="#FEFEFE"/>
<path d="M261.679 94.7895C265.776 97.1272 262.004 101.402 259.518 103.298C259.284 103.113 258.822 102.739 258.589 102.555C259.385 99.8833 260.53 97.3281 261.679 94.7895H261.679Z" fill="#FEFEFE"/>
<path d="M144.706 96.967C145.735 96.8461 146.916 96.5894 147.587 97.6056C146.627 97.8267 145.662 98.0195 144.695 98.1881C144.699 97.8831 144.706 97.2724 144.706 96.9674V96.967Z" fill="#102528"/>
<path d="M250.691 103.185C253.926 101.156 256.742 98.5452 259.963 96.5011C259.292 98.4045 258.903 100.634 257.155 101.888C257.706 102.535 258.256 103.185 258.807 103.84C256.991 106.46 255.227 109.175 252.978 111.437C249.467 110.537 250.704 105.897 250.691 103.186V103.185Z" fill="#FEFEFE"/>
<path d="M35.3748 152.484C39.1229 134.222 42.7907 115.916 46.7796 97.7141C47.1172 100.506 46.9482 103.386 47.8522 106.086C51.3514 105.15 52.9823 101.534 55.947 99.799C57.9834 99.0072 59.0964 101.51 59.3615 103.117C60.4418 109.215 57.1278 114.795 54.9748 120.259C54.3637 122.119 54.1148 124.155 52.8251 125.718C47.089 134.692 41.3683 143.679 35.3745 152.485L35.3748 152.484Z" fill="#FEFEFE"/>
<path d="M93.162 113.477C92.68 109.195 97.107 107.018 99.433 104.101C100.308 125.718 101.14 147.338 102.068 168.951C102.24 170.067 101.329 170.815 100.618 171.51C96.9984 174.856 93.5118 178.339 89.9727 181.762C90.9005 158.996 92.2906 136.247 93.162 113.477Z" fill="#FEFEFE"/>
<path d="M287.048 105.68C288.35 104.121 291.162 105.101 291.222 107.13C291.23 110.95 287.92 114.847 283.87 114.445C284.176 111.348 284.906 108.05 287.048 105.68V105.68Z" fill="#FEFEFE"/>
<path d="M242.71 108.717C243.911 107.946 245.104 107.159 246.257 106.319C246.14 109.396 246.266 112.473 246.245 115.554C245.076 113.268 243.911 110.983 242.71 108.717Z" fill="#FEFEFE"/>
<path d="M64.1577 110.89C64.9334 107.873 69.2196 105.844 71.9192 107.074C73.3453 111.356 67.0824 113.096 64.1577 110.89Z" fill="#FEFEFE"/>
<path d="M46.4702 137.669C51.9574 128.433 57.9593 119.511 63.4105 110.256C63.6551 116.743 69.2515 120.729 71.9229 126.108C66.781 128.811 61.7513 131.728 56.5409 134.311C53.3516 135.825 50.226 138.292 46.4702 137.669V137.669Z" fill="#FEFEFE"/>
<path d="M250.756 110.782C252.616 112.578 252.306 115.409 253.395 117.619C254.223 120.258 256.71 122.58 255.958 125.541C254.829 131.94 254.708 138.452 254.556 144.932C253.58 140.594 250.166 136.307 251.748 131.787C251.463 132.278 251.082 132.695 250.655 133.069C250.687 125.641 250.406 118.202 250.756 110.782Z" fill="#FEFEFE"/>
<path d="M184.525 114.012C189.961 111.428 197.091 112.353 201.409 116.655C194.427 117.338 188.273 121.054 182.774 125.159C182.83 123.492 182.826 121.821 182.93 120.154C182.979 121.436 183.107 122.713 183.232 123.991C188.169 120.162 193.729 117.206 199.903 115.993C195.725 113.012 190.005 112.482 185.252 114.265C182.814 115.057 183.577 118.045 183.4 120.002C183.28 119.295 183.155 118.588 183.067 117.88C183.095 116.519 182.903 114.526 184.525 114.012L184.525 114.012Z" fill="#FEFEFE"/>
<path d="M316.936 113.835C321.335 110.569 329.654 116.595 325.797 121.504C320.652 128.57 312.448 132.707 304.442 135.696C306.547 127.578 309.709 118.76 316.936 113.835Z" fill="#FEFEFE"/>
<path d="M185.252 114.265C190.004 112.481 195.724 113.011 199.903 115.992C193.728 117.205 188.168 120.162 183.231 123.99C183.107 122.713 182.979 121.436 182.93 120.154C182.91 119.39 182.986 118.631 183.067 117.88C183.155 118.587 183.28 119.294 183.4 120.001C183.577 118.045 182.813 115.056 185.252 114.265Z" fill="#FFC745"/>
<path d="M261.354 115.317C263.764 112.762 268.155 112.999 270.754 115.112C272.099 116.418 270.862 118.338 269.641 119.21C265.985 121.893 261.45 123.219 256.966 123.564C257.75 120.532 259.144 117.574 261.354 115.317Z" fill="#FEFEFE"/>
<path d="M170.886 132.531C170.501 124.766 175.985 118.242 182.617 114.932C181.946 118.499 182.247 122.159 181.701 125.726C180.038 127.859 177.499 129.108 175.181 130.418C174.924 130.161 174.667 129.912 174.414 129.662C174.257 131.531 172.433 132.113 170.886 132.531Z" fill="#FFC745"/>
<path d="M75.9281 128.743C80.1784 124.267 84.3363 119.696 88.6948 115.333C87.6467 138.709 86.3651 162.077 85.3243 185.453C85.3122 186.438 84.5127 187.088 83.87 187.719C77.4869 193.58 71.3725 199.73 65.0337 205.632C67.8979 181.918 71.2119 158.257 74.0963 134.547C74.3576 132.535 74.3052 130.225 75.9278 128.743H75.9281Z" fill="#FEFEFE"/>
<path d="M182.801 126.031C188.546 122.247 194.415 117.362 201.679 117.49C204.635 117.386 207.098 119.777 207.423 122.653C203.811 120.572 199.252 120.953 195.918 123.396C189.679 127.622 187.799 135.419 185.662 142.18C183.5 137.099 182.958 131.499 182.801 126.032V126.031Z" fill="#129166"/>
<path d="M157.035 119.065C158.678 117.49 161.494 117.33 162.888 119.323C165.957 123.163 169.051 127.501 169.601 132.523C168.002 131.157 166.982 129.277 165.463 127.839C166.359 129.562 167.472 131.157 168.468 132.824C167.5 132.836 166.535 132.84 165.575 132.832C165.218 131.555 164.856 130.281 164.407 129.032C164.334 130.201 164.294 131.37 164.25 132.539C162.012 132.295 159.939 131.378 158.059 130.181C156.091 128.847 153.367 128.952 151.741 127.084C151.64 123.609 154.657 121.158 157.035 119.066V119.065Z" fill="#FFC745"/>
<path d="M325.91 122.632C326.098 122.347 326.283 122.058 326.464 121.765C326.882 135.331 325.372 148.909 325.492 162.495C324.929 180.014 324.279 197.525 323.713 215.04C322.716 224.055 323.921 233.302 322.327 242.212C321.776 235.725 322.921 229.205 322.471 222.697C322.668 221.664 322.833 220.62 322.877 219.571C323.913 187.257 325.022 154.943 325.91 122.632Z" fill="#DCDDDD"/>
<path d="M192.294 128.606C195.139 123.637 202.683 119.809 207.391 124.585C204.197 122.56 199.959 122.375 196.878 124.73C191.608 128.357 189.615 134.833 187.807 140.646C184.71 150.231 184.136 160.362 182.155 170.18C182.259 167.083 182.669 164.009 183.015 160.933C184.978 149.922 186.569 138.412 192.294 128.606V128.606Z" fill="#FEFEFE"/>
<path d="M325.91 122.632C325.022 154.943 323.913 187.257 322.877 219.571C319.133 216.277 313.159 216.908 309.741 220.359C304.454 225.473 302.594 233.009 301.65 240.063C301.003 238.082 299.42 236.307 299.465 234.178C303.149 221.737 305.109 208.861 307.146 196.067C307.612 192.592 308.407 189.137 308.335 185.614C305.013 201.727 303.671 218.414 298.573 234.154C294.118 228.983 290.118 223.436 285.794 218.153C284.779 216.908 283.617 215.602 283.545 213.915C283.075 207.905 283.047 201.872 283.039 195.846C283.063 193.492 283.099 190.848 284.867 189.053C290.097 183.268 295.046 177.029 298.188 169.839C300.482 162.816 301.342 155.429 302.675 148.19C305.909 148.005 309.348 148.415 312.381 147.057C313.622 146.639 313.891 144.94 312.762 144.225C310.043 142.156 306.753 141.011 303.595 139.794C303.844 138.441 303.679 136.476 305.362 136.05C313.052 133.19 320.756 129.209 325.911 122.633L325.91 122.632Z" fill="#FEFEFE"/>
<path d="M196.878 124.73C199.959 122.375 204.197 122.56 207.391 124.585C213.155 130.285 214.617 138.854 216.743 146.382C221.259 165.99 225.36 185.956 225.388 206.158C215.803 205.696 206.295 203.751 197.191 200.746C194.291 199.437 190.856 198.822 188.687 196.311C193.25 195.207 197.935 193.222 200.518 189.073C202.117 187.088 202.152 183.886 204.712 182.761C206.736 181.717 208.508 180.142 209.489 178.054C207.564 179.5 205.937 181.392 203.655 182.308C206.476 170.999 208.472 159.486 212.079 148.386C207.765 157.554 206.451 167.733 203.719 177.394C201.731 182.026 200.827 187.506 196.597 190.771C190.808 195.777 182.135 195.553 175.189 193.435C170.979 192.21 167.356 189.699 163.423 187.868C159.462 185.634 155.834 182.846 151.954 180.476C157.513 173.189 167.328 171.236 175.973 172.767C180.364 173.466 186.128 175.728 189.354 171.301C185.807 174.137 181.187 173.397 177.166 172.165C170.69 170.332 163.66 170.835 157.554 173.683C154.215 170.144 148.889 170.099 144.482 171.209C148.708 171.152 153.577 170.742 156.819 174.044C154.493 175.599 152.472 177.551 150.721 179.724C144.835 176.474 138.589 172.823 131.655 172.959C129.911 168.167 130.076 162.892 131.751 158.104C134.117 151.17 136.435 144.068 140.545 137.938C141.497 136.339 143.173 135.479 144.799 134.728C144.674 134.728 144.421 134.724 144.293 134.724C146.482 134.061 148.937 134.928 150.708 136.27C157.513 141.236 156.819 150.363 156.497 157.803C156.521 160.197 156.541 162.631 157.313 164.925C156.409 157.312 159.554 149.535 156.895 142.087C161.989 138.99 158.799 132.47 155.368 129.397C158.092 130.843 160.631 133.101 163.889 133.076C165.897 133.269 168.143 132.646 169.995 133.538C171.035 141.453 171.98 149.635 175.522 156.906C173.212 149.186 171.144 141.3 170.991 133.189C174.847 131.59 178.543 129.565 181.777 126.91C182.432 131.068 182.52 135.338 183.842 139.371C184.352 141.227 185.465 143.063 185.035 145.051C183.903 150.258 182.673 155.561 183.015 160.932C182.669 164.008 182.26 167.082 182.156 170.179C184.136 160.361 184.71 150.23 187.808 140.645C189.615 134.832 191.608 128.356 196.878 124.728L196.878 124.73Z" fill="#129166"/>
<path d="M50.5721 138.324C57.8431 134.504 65.2146 130.856 72.2649 126.634C74.0085 129.321 73.6265 132.495 73.0077 135.467C65.7609 137.492 58.1445 139.87 50.5721 138.324Z" fill="#FEFEFE"/>
<path d="M140.195 136.448C141.485 128.554 154.336 125.22 157.638 133.475C154.207 127.469 144.12 128.333 141.726 134.648C141.46 135.423 140.778 135.921 140.195 136.448Z" fill="#FEFEFE"/>
<path d="M242.573 130.783C242.485 129 245.442 128.618 246.136 130.092C246.409 131.37 246.116 132.684 245.992 133.969C244.582 133.347 242.661 132.587 242.573 130.783Z" fill="#FEFEFE"/>
<path d="M141.726 134.648C144.12 128.333 154.207 127.469 157.638 133.475C159.402 135.813 159.261 139.842 156.457 141.333C153.709 136.231 147.554 132.181 141.726 134.648Z" fill="#FCB900"/>
<path d="M139.078 139.276C140.335 137.343 141.766 134.981 144.292 134.724C144.421 134.724 144.674 134.728 144.799 134.728C143.172 135.48 141.497 136.339 140.544 137.938C136.435 144.068 134.117 151.171 131.751 158.105C130.076 162.893 129.911 168.168 131.654 172.96C128.477 168.569 129.666 162.652 131.128 157.827C133.357 151.488 135.559 145.037 139.078 139.276H139.078Z" fill="#FEFEFE"/>
<path d="M66.464 139.802C66.7455 136.685 70.7183 137.456 72.8632 136.423C69.9107 159.703 66.9581 182.982 63.8487 206.242C52.7533 196.657 40.931 187.852 30.0117 178.106C31.3172 170.947 32.9404 163.825 34.4306 156.694C39.641 160.84 45.8236 164.38 52.6445 164.496C55.3444 164.6 57.0678 162.214 58.3168 160.161C62.0286 153.83 64.6402 146.896 66.464 139.802Z" fill="#FEFEFE"/>
<path d="M150.708 136.271C158.285 140.433 157.481 150.484 156.497 157.803C156.818 150.363 157.513 141.236 150.708 136.271Z" fill="#FEFEFE"/>
<path d="M250.648 136.219C253.484 143.321 254.765 150.914 257.075 158.189C254.986 156.726 252.966 155.163 250.728 153.93C250.664 148.029 250.559 142.115 250.648 136.218V136.219Z" fill="#FEFEFE"/>
<path d="M227.951 137.749C230.92 135.72 234.776 137.295 237.295 139.324C240.472 141.991 243.561 144.964 245.578 148.628C239.697 150.235 232.016 151.918 227.296 146.912C224.845 144.421 224.878 139.721 227.951 137.749V137.749Z" fill="#FEFEFE"/>
<path d="M291.39 137.645C298.171 138.432 304.783 140.541 310.837 143.682C311.837 144.136 312.528 144.992 313.103 145.9C310.001 147.644 306.33 147.362 302.907 147.41C297.676 147.242 292.398 146.747 287.356 145.286C288.469 142.622 289.883 140.103 291.389 137.645L291.39 137.645Z" fill="#FEFEFE"/>
<path d="M57.6059 139.75C60.4418 139.063 63.3665 138.738 66.2025 137.998C63.9131 146.258 61.2014 154.625 56.2803 161.728C54.0466 164.97 49.6237 163.624 46.571 162.515C48.6837 159.257 50.8733 154.999 49.15 151.142C48.3222 149.54 46.9042 151.283 46.145 152.022C46.1692 150.697 46.1773 149.367 46.1648 148.045C47.603 147.001 49.0734 145.996 50.5236 144.968C51.0742 145.358 51.6285 145.743 52.1949 146.117C51.9053 145.51 51.6043 144.912 51.303 144.313C53.4799 142.895 55.3803 141.075 57.6059 139.75Z" fill="#FEFEFE"/>
<path d="M46.3618 138.553C49.6117 138.693 52.7655 139.585 56.0153 139.758C54.3363 141.196 52.5807 142.542 50.7324 143.751C49.2986 141.995 47.6797 140.4 46.3618 138.552V138.553Z" fill="#FEFEFE"/>
<path d="M35.5995 154.055C38.7126 149.005 42.1879 144.185 45.297 139.127C45.4895 141.927 45.6023 144.739 45.429 147.543C42.1469 149.704 38.9058 151.93 35.5995 154.055Z" fill="#FEFEFE"/>
<path d="M45.8638 139.123C47.4145 140.774 48.8445 142.534 50.2266 144.329C48.909 145.205 47.5915 146.085 46.2494 146.929C46.1772 144.325 46.0247 141.722 45.8638 139.123Z" fill="#FEFEFE"/>
<path d="M286.919 145.96C291.816 147.206 296.833 148.013 301.891 148.089C300.938 154.975 299.557 161.804 297.909 168.557C296.797 163.945 295.102 158.65 290.47 156.469C288.702 155.598 285.312 155.441 285.187 158.1C285.5 161.691 288.698 164.074 290.16 167.212C284.725 169.051 279.265 172.896 277.635 178.648C276.883 180.476 278.723 182.34 280.543 181.525C286.083 179.516 290.819 175.856 295.796 172.787C292.888 178.962 288.171 184.035 283.793 189.189C282.704 190.471 282.451 192.194 282.359 193.816C282.005 200.658 282.579 207.495 282.805 214.332C279.925 210.48 276.469 206.997 274.517 202.526C269.535 192.109 265.117 181.416 261.349 170.501C261.633 170.606 262.196 170.818 262.481 170.923C260.296 167.721 259.3 163.969 258.364 160.266C267.439 164.966 272.684 175.463 271.725 185.498C272.171 185.891 272.62 186.285 273.079 186.678C272.938 183.513 271.669 180.199 272.958 177.126C277.437 166.661 282.02 156.236 286.918 145.96H286.919Z" fill="#FEFEFE"/>
<path d="M225.388 206.158C225.36 185.956 221.258 165.99 216.743 146.382C222.174 165.974 225.552 186.257 226.059 206.6C222.64 207.644 219.197 208.93 215.582 208.971C218.141 207.733 221.165 208.03 223.692 206.64C211.267 204.68 197.854 203.752 187.204 196.364C187.695 196.34 188.192 196.324 188.687 196.312C190.855 198.823 194.291 199.438 197.191 200.747C206.294 203.752 215.803 205.696 225.387 206.158L225.388 206.158Z" fill="#FEFEFE"/>
<path d="M34.8643 155.871C38.3553 153.356 41.8585 150.865 45.4295 148.467C46.0926 152.978 43.5496 157.149 44.076 161.668C40.89 159.956 37.3835 158.542 34.8643 155.871Z" fill="#FEFEFE"/>
<path d="M44.9963 162.672C44.1928 158.731 44.5626 153.296 48.487 151.102C49.8607 155.096 48.3261 160.105 44.9963 162.672Z" fill="#FEFEFE"/>
<path d="M236.7 154.119C239.813 153.501 243.019 153.842 246.161 154.011C246.152 156.417 246.14 158.824 246.156 161.229C242.862 161.274 239.335 161.563 236.31 159.996C234.016 158.912 233.968 154.637 236.7 154.119Z" fill="#FEFEFE"/>
<path d="M250.672 154.791C252.921 156.096 255.107 157.53 257.007 159.321C254.922 159.868 252.805 160.266 250.676 160.583C250.62 158.651 250.616 156.719 250.672 154.791Z" fill="#FEFEFE"/>
<path d="M285.923 158.474C285.625 156.433 288.264 156.245 289.615 156.875C294.222 158.595 295.994 163.736 297.09 168.103C295.106 167.5 293.053 167.139 290.98 167.111C289.498 164.114 286.698 161.78 285.923 158.474Z" fill="#FEFEFE"/>
<path d="M250.656 161.322C252.938 160.953 255.208 160.483 257.433 159.84C261.161 174.233 266.966 187.98 273.116 201.478C267.151 198.879 261.346 195.854 255.168 193.773C253.645 193.179 251.966 193.355 250.56 194.159C250.684 183.216 250.535 172.269 250.656 161.322Z" fill="#FEFEFE"/>
<path d="M234.775 160.872C237.371 175.189 239.91 189.527 242.179 203.896C239.653 189.567 237.114 175.234 234.775 160.872Z" fill="#102528"/>
<path d="M291.016 167.898C292.961 167.754 297.263 167.746 297.079 170.289C292.76 174.603 287.091 177.411 281.757 180.311C280.451 181.271 277.635 181.287 278.322 178.978C280.005 173.37 285.392 169.116 291.016 167.898Z" fill="#FEFEFE"/>
<path d="M151.492 180.099C157.015 172.675 167.327 170.421 175.972 172.767C167.327 171.237 157.513 173.189 151.953 180.476C151.837 180.379 151.608 180.191 151.492 180.099Z" fill="#FEFEFE"/>
<path d="M262.663 171.594C263.595 172.602 264.306 173.795 264.812 175.077C263.884 174.057 263.165 172.871 262.663 171.594Z" fill="#102528"/>
<path d="M115.654 188.25C117.919 179.448 126.846 171.486 136.33 174.435C131.747 173.976 126.762 174.378 123.122 177.528C119.51 180.211 117.735 184.425 115.654 188.25H115.654Z" fill="#FEFEFE"/>
<path d="M196.596 190.772C200.826 187.506 201.731 182.027 203.719 177.395C202.329 183.501 200.18 190.535 194.026 193.4C183.826 198.116 171.798 194.689 163.422 187.868C167.355 189.7 170.979 192.211 175.189 193.435C182.134 195.553 190.808 195.777 196.596 190.772Z" fill="#FEFEFE"/>
<path d="M30.458 180.066C41.292 188.827 52.0988 197.658 62.8283 206.556C64.5516 207.736 63.2502 209.966 63.2217 211.629C61.1288 223.549 59.6103 236.287 52.6927 246.547C44.988 224.489 37.6084 202.309 30.458 180.066Z" fill="#FEFEFE"/>
<path d="M17.7637 236.52C21.9253 217.864 25.3122 199.048 29.578 180.424C36.8211 202.772 44.3454 225.035 51.9054 247.274C41.5172 244.434 30.6143 243.583 20.5352 239.602C19.1696 239.059 16.8395 238.472 17.7637 236.52Z" fill="#FEFEFE"/>
<path d="M181.906 199.879C184.71 199.795 187.514 199.658 190.317 199.791C190.924 209.978 187.731 220.745 180.648 228.252C179.166 230.133 176.583 229.606 174.518 229.397C181.319 221.371 183.416 210.103 181.906 199.879Z" fill="#102528"/>
<path d="M274.466 204.181C275.361 205.572 276.133 207.042 277.113 208.379C284.336 217.369 291.354 226.533 298.54 235.556C302.011 239.93 301.397 245.812 301.915 251.03C302.2 256.136 303.329 261.145 303.759 266.235C293.748 253.043 285.304 238.657 278.294 223.657C274.939 217.719 274.51 210.846 274.466 204.181Z" fill="#FEFEFE"/>
<path d="M240.139 226.855C240.388 222.781 242.693 218.724 246.225 216.627C244.622 220.278 241.669 223.142 240.139 226.855Z" fill="#FEFEFE"/>
<path d="M247.892 217.205C248.285 217.358 248.683 217.511 249.085 217.667C249.454 220.78 248.314 223.777 248 226.842C247.554 223.644 247.731 220.414 247.892 217.205V217.205Z" fill="#FEFEFE"/>
<path d="M250.768 217.374C252.17 220.294 252.255 223.58 252.608 226.742C252.391 226.69 251.961 226.585 251.748 226.533C251.226 223.504 250.583 220.463 250.768 217.374Z" fill="#FEFEFE"/>
<path d="M311.83 219.636C314.855 217.531 319.904 217.269 322.311 220.387C322.029 222.934 320.033 224.814 318.242 226.449C313.646 230.297 308.303 233.113 302.968 235.78C304.45 229.827 306.56 223.315 311.83 219.636Z" fill="#FEFEFE"/>
<path d="M241.304 227.441C242.175 224.569 244.08 222.203 245.84 219.828C245.94 222.283 245.98 224.737 246.109 227.192C244.526 227.493 242.911 227.574 241.304 227.441Z" fill="#FEFEFE"/>
<path d="M88.3213 221.162C93.1497 223.094 96.4637 227.63 98.4243 232.294C96.3475 232.346 94.2748 232.362 92.1977 232.298C90.8559 228.634 88.329 225.159 88.3213 221.162Z" fill="#FEFEFE"/>
<path d="M249.411 234.379C249.306 229.944 249.073 225.433 250.105 221.082C250.318 225.525 250.407 229.972 250.495 234.419C250.222 234.41 249.683 234.387 249.411 234.379Z" fill="#FEFEFE"/>
<path d="M85.2887 222.415C85.4328 222.42 85.7143 222.428 85.8551 222.428C85.8228 228.413 86.1722 234.391 86.0761 240.376C85.8269 240.481 85.3327 240.689 85.0834 240.794C84.9269 234.668 85.0794 228.538 85.2887 222.415Z" fill="#FEFEFE"/>
<path d="M86.8468 222.275C87.7347 225.862 89.5424 229.104 91.1569 232.398C89.7953 232.394 88.4375 232.398 87.0752 232.39C86.8586 229.023 86.8062 225.649 86.8465 222.275H86.8468Z" fill="#FEFEFE"/>
<path d="M141.766 224.332C145.667 228.188 148.306 233.29 149.896 238.505C147.655 233.523 145.148 228.65 141.766 224.332Z" fill="#FEFEFE"/>
<path d="M203.237 231.113C218.061 228.317 233.273 229.611 248.237 228.047C248.261 228.956 248.281 229.867 248.301 230.78C215.497 232.222 182.677 233.471 149.864 234.788C149.459 233.949 149.049 233.113 148.639 232.282C155.561 231.791 162.507 231.823 169.436 231.414C180.696 230.912 191.993 232.1 203.237 231.112V231.113Z" fill="#FEFEFE"/>
<path d="M251.447 228.027C253.247 228.012 255.046 227.999 256.85 228.023C256.653 228.899 256.448 229.775 256.239 230.651C254.656 230.679 253.074 230.707 251.495 230.751C251.479 229.843 251.463 228.935 251.447 228.027H251.447Z" fill="#FEFEFE"/>
<path d="M251.523 231.627C253.005 231.607 254.488 231.603 255.974 231.598C255.946 231.88 255.894 232.446 255.866 232.727C254.416 232.748 252.969 232.759 251.523 232.759V231.627V231.627Z" fill="#FEFEFE"/>
<path d="M150.33 235.753C180.158 234.507 209.986 233.355 239.813 232.145C242.714 232.041 245.622 231.748 248.523 232.033C248.185 232.672 247.534 232.98 246.831 232.969C214.657 234.154 182.488 235.568 150.318 236.773C150.322 236.516 150.326 236.006 150.33 235.753Z" fill="#FEFEFE"/>
<path d="M79.0654 233.707C80.6924 233.655 82.3234 233.627 83.9503 233.611C83.954 234.724 83.958 235.832 83.9664 236.949C81.331 237.777 79.2176 236.524 79.0654 233.707Z" fill="#FEFEFE"/>
<path d="M80.6479 237.998C81.7448 238.01 82.842 238.027 83.9422 238.046C83.922 238.311 83.8901 238.842 83.874 239.107C82.842 239.119 81.8133 239.135 80.7806 239.147C80.7484 238.858 80.6802 238.288 80.6479 237.998Z" fill="#FEFEFE"/>
<path d="M311.07 254.621C312.697 253.047 315.232 251.665 317.47 252.754C319.076 253.939 317.951 256.116 317.128 257.442C314.111 261.888 309.901 265.64 305.008 267.891C305.684 263.034 307.527 258.117 311.07 254.621Z" fill="#FEFEFE"/>
<path d="M295.355 255.85C295.556 256.164 295.765 256.481 295.982 256.795C295.263 269.006 295.395 281.251 294.909 293.475H294.407C294.074 284.087 294.974 274.723 294.781 265.335C294.881 262.173 294.439 258.932 295.355 255.85Z" fill="#DCDDDD"/>
<path d="M101.803 262.575C105.358 263.913 109.066 264.772 112.83 265.255C112.404 266.849 112.05 268.46 111.693 270.075C107.913 270.111 103.944 272.397 100.405 270.099C100.83 267.581 101.425 265.098 101.803 262.575Z" fill="#FEFEFE"/>
<path d="M97.1992 273.868C97.2872 272.353 98.1996 271.184 99.6976 270.859C99.2558 272.136 98.4002 273.221 97.1992 273.868Z" fill="#FEFEFE"/>
<path d="M98.0471 274.8C98.8422 273.626 99.6498 272.462 100.413 271.268C104.708 273.904 109.641 269.537 113.851 272.016C118.153 275.707 118.743 282.448 116.498 287.429C114.473 290.772 117.133 294.483 116.345 298.104C106.001 302.775 94.6245 306.64 83.1193 305.218C79.1143 304.808 75.0612 304.382 71.2564 302.988C71.2769 299.336 69.7904 294.524 73.185 291.913C77.0493 288.732 82.5973 290.415 86.6265 287.675C87.7835 287.016 88.7073 288.486 89.7239 288.856C89.4951 287.988 89.1215 287.181 88.6553 286.422C89.1414 285.405 89.7078 284.429 90.3262 283.489C91.3024 284.429 92.3506 285.305 93.5237 286C93.8653 284.272 94.038 282.521 94.3272 280.785C95.3397 281.187 96.3519 281.609 97.3765 281.987C97.2959 281.69 97.2196 281.396 97.1434 281.107C99.2 279.488 97.5489 277.274 97.1511 275.286C98.5295 275.772 99.6703 276.716 100.766 277.656C100.815 277.283 100.908 276.539 100.952 276.17C99.9753 275.72 99.0112 275.262 98.0474 274.8L98.0471 274.8Z" fill="#FEFEFE"/>
<path d="M205.715 273.349C215.019 273.466 224.339 273.145 233.635 273.53C232.964 274.816 231.377 274.374 230.2 274.462C221.892 274.281 213.573 274.631 205.27 274.285C205.382 274.052 205.607 273.582 205.715 273.349Z" fill="#102528"/>
<path d="M87.261 286.04C86.1037 280.729 90.9402 276.571 95.6205 275.374C92.5554 278.7 89.6952 282.223 87.261 286.04Z" fill="#FEFEFE"/>
<path d="M96.2311 275.719C97.0907 277.383 97.6091 279.295 96.44 280.962C95.4275 280.368 94.4073 279.789 93.4189 279.158C94.5279 278.162 95.4759 277.005 96.2311 275.719Z" fill="#FEFEFE"/>
<path d="M90.6992 282.922C91.4783 281.689 92.3866 280.536 93.5191 279.608C93.6195 281.284 93.3585 282.959 92.8321 284.554C92.1253 284.003 91.4138 283.456 90.6992 282.922Z" fill="#FEFEFE"/>
<path d="M198.918 285.063C202.16 282.89 207.013 284.096 210.898 283.734C210.785 283.959 210.564 284.413 210.452 284.638C206.599 284.654 202.767 285.124 198.918 285.063Z" fill="#102528"/>
<path d="M142.272 289.241C143.67 290.045 143.718 291.849 144.582 293.078C146.454 295.995 149.101 298.337 151.82 300.446C151.74 298.02 151.069 295.677 150.724 293.291C152.721 295.412 152.552 298.533 152.761 301.237C155.086 298.277 158.807 298.284 162.213 298.525C165.431 298.148 164.117 294.32 163.908 292.182C172.481 291.278 179.19 300.703 178.222 308.681C176.748 312.794 179.833 316.603 179.784 320.773C171.87 324.597 163.712 327.891 155.645 331.373C148.209 334.712 139.484 335.893 131.634 333.362C128.167 332.53 129.38 328.196 129.011 325.573C128.782 320.865 133.992 319.133 137.716 318.281C140.649 317.868 142.079 315.1 144.3 313.517C144.369 312.931 144.437 312.348 144.509 311.762C147.012 309.126 149.362 306.271 151.246 303.149C145.526 305.045 140.854 309.701 134.752 310.388C140.203 307.439 145.895 304.535 151.515 301.731C147.876 298.108 142.693 294.89 142.272 289.241Z" fill="#102528"/>
<path d="M205.462 290.804C217.406 290.459 229.385 290.631 241.34 290.712C241.067 291.781 239.89 291.628 239.038 291.672C228.449 291.592 217.864 291.644 207.274 291.64C206.539 291.716 205.936 291.311 205.462 290.804Z" fill="#102528"/>
<path d="M164.788 293.005C173.57 293.347 179.652 303.9 176.374 311.85C177.944 314.365 178.402 317.337 178.816 320.222C170.878 323.797 162.852 327.179 154.85 330.614C148.049 333.562 140.271 334.595 133.04 332.771C128.718 332.117 129.987 326.617 130.072 323.499C133.764 324.066 137.922 324.472 141.171 322.234C137.841 323.853 133.996 324.17 130.437 323.158C133.659 318.691 140.73 320.298 143.541 315.264C144.413 315.879 145.26 316.533 146.124 317.164C146.277 316.321 146.43 315.477 146.575 314.637C146.169 315.171 145.775 315.722 145.393 316.276C145.437 314.706 145.619 313.127 146.245 311.672C147.526 312.215 147.928 313.93 149.286 314.24C150.065 312.584 149.338 310.488 150.242 308.764C150.949 309.371 151.632 310.006 152.319 310.644C152.512 310.532 152.901 310.298 153.099 310.186C152.785 309.929 152.476 309.68 152.167 309.435C153.424 307.94 153.047 305.996 152.793 304.225C153.818 304.92 154.862 305.583 155.967 306.153C156.702 304.144 154.139 303.699 153.191 302.421C155.176 298.846 159.269 299.561 162.676 299.497C165.813 298.986 165.669 295.311 164.789 293.005L164.788 293.005Z" fill="#FEFEFE"/>
<path d="M267.214 295.58C273.763 295.568 280.307 295.588 286.85 295.596C287.815 295.428 289.334 296.452 287.586 296.593C280.805 296.762 274 296.661 267.21 296.593C267.21 296.339 267.214 295.833 267.214 295.58Z" fill="#102528"/>
<path d="M71.4814 299.562C81.532 302.281 92.4913 303.92 102.454 299.943C92.6559 304.23 81.3634 302.719 71.4814 299.562Z" fill="#102528"/>
<path d="M151.869 308.929C150.78 308.508 149.306 306.716 151.078 306.162C152.821 306.017 152.154 307.913 151.869 308.929Z" fill="#FEFEFE"/>
<path d="M50.8248 307.271C72.1199 307.19 93.4187 307.194 114.714 307.254C114.75 307.504 114.822 307.998 114.855 308.247C93.4594 308.428 72.0638 308.287 50.668 308.247C50.7083 308.002 50.7845 307.516 50.8248 307.271Z" fill="#102528"/>
<path d="M146.643 311.07C147.45 309.721 148.37 308.424 149.531 307.351C149.458 308.998 148.968 310.581 148.301 312.079C147.743 311.741 147.193 311.408 146.643 311.07Z" fill="#FEFEFE"/>
<path d="M96.4238 317.595C99.3203 317.647 102.313 317.097 105.125 318.009C102.446 319.294 99.3441 318.346 96.484 318.631C96.4678 318.37 96.44 317.856 96.4238 317.595Z" fill="#102528"/>
<path d="M209.359 322.492C212.629 322.548 215.972 322.046 219.189 322.817C216.188 324.332 212.596 323.175 209.351 323.484C209.355 323.235 209.359 322.741 209.359 322.492Z" fill="#102528"/>
<path d="M55.9507 329.305C58.2925 329.092 60.6508 329.092 62.9966 329.276C61.4298 330.77 57.5857 330.727 55.9507 329.305Z" fill="#102528"/>
<path d="M265.503 329.196C268.211 329.092 270.922 329.092 273.634 329.156C273.63 329.393 273.625 329.863 273.622 330.096C270.919 330.168 268.215 330.157 265.515 330.096C265.511 329.871 265.507 329.422 265.503 329.196Z" fill="#102528"/>
<path d="M137.708 330.112C142.184 330.402 146.695 330.916 151.094 329.678C146.811 331.294 142.123 330.747 137.708 330.112Z" fill="#102528"/>
<path d="M304.518 329.678C308.495 329.682 312.476 329.401 316.449 329.658C313.167 331.695 308.411 330.181 304.546 330.718C304.538 330.458 304.526 329.939 304.518 329.678L304.518 329.678Z" fill="#102528"/>
<path d="M101.365 336.849C116.927 336.106 132.627 336.676 148.241 336.528C151.483 336.66 154.761 336.226 157.968 336.825C156.838 337.857 155.251 337.516 153.866 337.568C137.114 337.576 120.362 337.5 103.615 337.568C102.779 337.652 102.028 337.314 101.365 336.849L101.365 336.849Z" fill="#102528"/>
<path d="M292.483 337.692C295.258 337.492 298.046 337.395 300.83 337.355C300.842 337.612 300.866 338.13 300.874 338.392C298.155 338.536 295.435 338.632 292.716 338.684C292.655 338.436 292.539 337.942 292.483 337.692H292.483Z" fill="#102528"/>
<path d="M172.124 340.73C174.799 339.368 179.085 339.416 181.797 340.71C178.591 341.059 175.333 341.063 172.124 340.73Z" fill="#102528"/>
<path d="M85.2041 342.939C98.561 342.895 111.926 342.871 125.283 342.935C125.279 343.184 125.263 343.686 125.259 343.936C111.914 343.952 98.569 343.94 85.2239 343.967C85.2199 343.71 85.2078 343.196 85.2041 342.939Z" fill="#102528"/>
<path d="M161.101 342.955C172.361 342.847 183.621 342.939 194.881 342.911C195.697 342.843 196.44 343.184 197.107 343.622C185.168 344.381 173.112 343.723 161.133 343.952C161.124 343.702 161.108 343.204 161.101 342.955H161.101Z" fill="#102528"/>
</g>
<defs>
<clipPath id="clip0_851_6681">
<rect width="344" height="344" fill="white"/>
</clipPath>
</defs>
</svg>
